<?xml version="1.0" encoding="UTF-8"?>
<svg width="70px" height="60px" viewBox="0 0 70 60" version="1.1" xmlns="http://www.w3.org/2000/svg" xmlns:xlink="http://www.w3.org/1999/xlink">
    <!-- Generator: Sketch 49.1 (51147) - http://www.bohemiancoding.com/sketch -->
    <title>Loop Passive 5</title>
    <desc>Created with Sketch.</desc>
    <defs></defs>
    <g id="Page-1" stroke="none" stroke-width="1" fill="none" fill-rule="evenodd">
        <g id="Controls-Play" transform="translate(-316.000000, -150.000000)">
            <g id="Player" transform="translate(32.000000, 150.000000)">
                <g id="Loop-Passive-5" transform="translate(284.000000, 0.000000)">
                    <path d="M0,0 L40,0 C56.5685425,-3.04359188e-15 70,13.4314575 70,30 L70,30 C70,46.5685425 56.5685425,60 40,60 L0,60 L0,0 Z" id="Bg-player-Copy-2" fill="#FFFFFF"></path>
                    <g id="Group-6" transform="translate(21.000000, 15.000000)" fill="#615F97" fill-rule="nonzero" stroke="#615F97" stroke-width="0.4">
                        <path d="M4.86474081,25.1520482 C3.15605086,25.1520482 1.34012804,24.1004995 1.34012804,22.15876 L1.34012804,7.5470282 C1.34012804,5.76005453 2.51943821,4.50856212 4.20802593,4.50856212 L14.4601657,4.50856212 L12.2556415,6.63095245 C11.9875908,6.87607393 11.9809319,7.28896421 12.242261,7.54055694 C12.4968683,7.79862093 12.925737,7.80503171 13.187066,7.55343898 C13.1937877,7.54696772 13.2004466,7.54055694 13.2004466,7.54055694 L16.5507981,4.31502925 C16.8121271,4.06343652 16.8121271,3.65701749 16.5507981,3.40542475 L13.2004466,0.179897059 C12.9323958,-0.0652244187 12.5102489,-0.0588136424 12.2556415,0.19277909 C12.007693,0.444371823 12.007693,0.837908821 12.2556415,1.08950155 L14.4668874,3.21189188 L4.21474762,3.21189188 C1.76899666,3.21836314 0,5.03757213 0,7.5470282 L0,22.15876 C0,24.5585676 2.13755857,26.4423077 4.86474081,26.4423077 C5.23330273,26.4423077 5.53483625,26.1520084 5.53483625,25.797178 C5.53483625,25.4423475 5.23330273,25.1520482 4.86474081,25.1520482 Z" id="Shape"></path>
                        <path d="M19.8526853,3.52564103 C19.494237,3.52564103 19.2009779,3.81594033 19.2009779,4.17077076 C19.2009779,4.52560118 19.494237,4.81590049 19.8526853,4.81590049 C21.6643548,4.81590049 22.6614359,5.83515345 22.6614359,7.68018698 L22.6614359,22.2145056 C22.6614359,23.8272997 21.7881957,25.4593866 19.8331346,25.4593866 L11.1982409,25.4593866 L13.3422708,23.3369963 C13.5898915,23.0789323 13.5834154,22.6725133 13.3292575,22.4273918 C13.0750995,22.1886811 12.6775501,22.1886811 12.4233922,22.4273918 L9.16497743,25.6529195 C8.91081949,25.9045122 8.91081949,26.3109312 9.16497743,26.562524 L12.4233922,29.7880517 C12.6840873,30.0331731 13.0946501,30.0267624 13.3422708,29.7751696 C13.5834154,29.5235769 13.5834154,29.1300399 13.3422708,28.8784472 L11.1982409,26.7495856 L19.8265974,26.7495856 C22.2574103,26.7495856 23.9583135,24.8851988 23.9583135,22.2144451 L23.9583135,7.6801265 C23.9647896,5.11902135 22.3877274,3.52564103 19.8526853,3.52564103 Z" id="Shape"></path>
                    </g>
                </g>
            </g>
        </g>
    </g>
</svg>