
<svg width="90px" height="76px" viewBox="0 0 60 50" version="1.1" xmlns="http://www.w3.org/2000/svg" xmlns:xlink="http://www.w3.org/1999/xlink">
    <!-- Generator: Sketch 50 (54983) - http://www.bohemiancoding.com/sketch -->
    <desc>Created with Sketch.</desc>
    <defs></defs>
    <g id="Page-1" stroke="none" stroke-width="1" fill="none" fill-rule="evenodd">
        <g id="Singing-Screen-1" transform="translate(-30.000000, -73.000000)">
            <g id="Toolbar" transform="translate(0.000000, 24.000000)">
                <g id="lyrics-menu" transform="translate(30.000000, 49.000000)">
                    <rect id="Rectangle-8-Copy-8" fill="#FFFFFF" x="0" y="0" width="60" height="50" rx="10"></rect>
                    <g id="lyrics" transform="translate(18.000000, 15.000000)" fill="#615F97">
                        <rect id="Rectangle" x="0" y="17.5" width="24.1299992" height="2.5" rx="1.25"></rect>
                        <rect id="Rectangle-Copy" x="0" y="11.6500015" width="24.1299992" height="2.5" rx="1.25"></rect>
                        <rect id="Rectangle-Copy-2" x="0" y="5.80000305" width="10.8299999" height="2.5" rx="1.25"></rect>
                        <rect id="Rectangle-Copy-3" x="0" y="0" width="10.8299999" height="2.5" rx="1.25"></rect>
                        <path d="M22.9880128,0 L15.6187365,0 C15.4484176,0 15.3107493,0.133019157 15.3107493,0.297060449 L15.3107493,5.46600627 L15.2244934,5.4636561 C14.1704169,5.4636561 13.312,6.29091305 13.312,7.30782805 C13.312,8.32474305 14.1699296,9.152 15.2244934,9.152 C16.260539,9.152 17.1177375,8.33907904 17.1352811,7.34566566 L17.1362558,7.3172287 C17.1367431,7.31346844 17.1367431,7.3099432 17.1367431,7.30618294 L17.1367431,2.61408495 L21.4697625,2.61408495 L21.4697625,5.46577125 L21.3835066,5.46342109 C20.3296738,5.46342109 19.4717442,6.29067803 19.4717442,7.30759304 C19.4717442,8.32450804 20.3296738,9.15176498 21.3835066,9.15176498 C23.2769945,9.15176498 23.296,7.31111828 23.296,7.30759304 L23.296,0.296590417 C23.296,0.133019157 23.1585753,0 22.9880128,0 Z" id="Shape" fill-rule="nonzero"></path>
                    </g>
                </g>
            </g>
        </g>
    </g>
</svg>
