<svg width="60px" height="50px" viewBox="0 0 60 50" version="1.1" xmlns="http://www.w3.org/2000/svg" xmlns:xlink="http://www.w3.org/1999/xlink">
    <!-- Generator: Sketch 50 (54983) - http://www.bohemiancoding.com/sketch -->
    <desc>Created with Sketch.</desc>
    <defs></defs>
    <g id="Page-1" stroke="none" stroke-width="1" fill="none" fill-rule="evenodd">
        <g id="Singing-Screen-" transform="translate(-160.000000, -73.000000)">
            <g id="Toolbar" transform="translate(0.000000, 24.000000)">
                <g id="metronome" transform="translate(160.000000, 49.000000)">
                    <rect id="Rectangle-8-Copy-6" fill="#615F97" x="0" y="0" width="60" height="50" rx="10"></rect>
                    <g transform="translate(23.000000, 12.000000)" fill="#FFFFFF" fill-rule="nonzero" id="Shape">
                        <path d="M9.75014484,2.46296828 L7.41009642,0 L5.07011172,2.46296828 L3.5378158,10.6745838 L4.11970597,11.7356982 L5.63524539,3.61521925 C5.67111577,3.42268564 5.83141749,3.28393536 6.01784152,3.28393536 L8.80241504,3.28393536 C8.98883907,3.28393536 9.14914079,3.42268564 9.18501117,3.61521925 L12.0046905,18.7243799 C12.0994316,19.2317673 11.7305338,19.7038133 11.2394982,19.7038133 L7.69827,19.7038133 C7.69674089,19.7009297 7.69712317,19.698046 7.69553034,19.6951624 L6.04116045,16.7244043 L6.10512823,16.6853745 C6.25995065,16.5909519 6.33443106,16.3980159 6.28492612,16.2170169 L5.9265409,14.8976486 L5.25220327,15.3077298 L0.727438545,7.18316012 C0.620209687,6.98774287 0.380712791,6.92001074 0.194671041,7.03294233 C0.0090115691,7.14580686 -0.0553384882,7.39829347 0.0519540826,7.59371072 L4.5767188,15.7182804 L3.90008751,16.1291663 L4.80608534,17.1155741 C4.93051669,17.2510384 5.1266888,17.2797407 5.28151121,17.1857876 L5.3657397,17.1348879 L6.79628608,19.7038133 L3.58075831,19.7038133 C3.08972278,19.7038133 2.72082492,19.2317673 2.81556605,18.7247823 L3.43370888,15.4112728 L2.8518187,14.3501584 L0.780129137,25.4508511 L1.5601028,25.4508511 C1.5601028,25.9044552 1.90912222,26.2718182 2.34007647,26.2718182 C2.77103071,26.2718182 3.12005013,25.9044552 3.12005013,25.4508511 L11.700079,25.4508511 C11.700079,25.9044552 12.0490984,26.2718182 12.4800527,26.2718182 C12.9110069,26.2718182 13.2600263,25.9044552 13.2600263,25.4508511 L14.04,25.4508511 L9.75014484,2.46296828 Z"></path>
                    </g>
                </g>
            </g>
        </g>
    </g>
</svg>
