
<svg width="60px" height="50px" viewBox="0 0 60 50" version="1.1" xmlns="http://www.w3.org/2000/svg" xmlns:xlink="http://www.w3.org/1999/xlink">
    <!-- Generator: Sketch 50 (54983) - http://www.bohemiancoding.com/sketch -->
    <desc>Created with Sketch.</desc>
    <defs></defs>
    <g id="Page-1" stroke="none" stroke-width="1" fill="none" fill-rule="evenodd">
        <g id="Singing-Screen-1" transform="translate(-95.000000, -73.000000)">
            <g id="Toolbar" transform="translate(0.000000, 24.000000)">
                <g id="lyrics-menu-copy" transform="translate(95.000000, 49.000000)">
                    <rect id="Rectangle-8-Copy-8" fill="#FFFFFF" x="0" y="0" width="60" height="50" rx="10"></rect>
                    <g id="004-music" transform="translate(10.000000, 12.000000)" fill="#615F97" fill-rule="nonzero">
                        <path d="M8,18.3462128 C7.3096473,18.3462128 6.75,17.7269362 6.75,16.9617447 L6.75,10.0394043 C6.75,9.27478723 7.3096473,8.65493617 8,8.65493617 C8.6903527,8.65493617 9.25,9.27478723 9.25,10.0394043 L9.25,16.9617447 C9.25,17.7252128 8.6903527,18.3462128 8,18.3462128 Z" id="Shape"></path>
                        <path d="M12.0385105,21.8079574 C11.3481579,21.8079574 10.7885106,21.1881064 10.7885106,20.4234894 L10.7885106,6.57651064 C10.7885106,5.81189362 11.3481579,5.19204255 12.0385105,5.19204255 C12.7288631,5.19204255 13.2885103,5.81189362 13.2885103,6.57651064 L13.2885103,20.4234894 C13.289029,21.1881064 12.7288631,21.8079574 12.0385105,21.8079574 Z" id="Shape"></path>
                        <path d="M16.076762,20.0765106 C15.3865525,20.0765106 14.8270213,19.4566596 14.8270213,18.6920426 L14.8270213,8.30795745 C14.8270213,7.54334043 15.3865525,6.92348936 16.076762,6.92348936 C16.7669715,6.92348936 17.3270213,7.54334043 17.3270213,8.30795745 L17.3270213,18.6920426 C17.3265027,19.4566596 16.7669715,20.0765106 16.076762,20.0765106 Z" id="Shape"></path>
                        <path d="M20.1155319,23.5388298 C19.4251792,23.5388298 18.8655319,22.9195532 18.8655319,22.1543617 L18.8655319,4.84621277 C18.8655319,4.08159574 19.4251792,3.46174468 20.1155319,3.46174468 C20.8058846,3.46174468 21.3655319,4.08159574 21.3655319,4.84621277 L21.3655319,22.1537872 C21.3655319,22.9189787 20.8058846,23.5388298 20.1155319,23.5388298 Z" id="Shape"></path>
                        <path d="M24.1534681,27 C23.4636341,27 22.9034681,26.3801489 22.9034681,25.6155319 L22.9034681,1.38446809 C22.9034681,0.619851064 23.4636341,0 24.1534681,0 C24.8443395,0 25.4034681,0.619851064 25.4034681,1.38446809 L25.4034681,25.6155319 C25.4034681,26.3801489 24.8443395,27 24.1534681,27 Z" id="Shape"></path>
                        <path d="M28.1931277,21.8079574 C27.5022563,21.8079574 26.9431277,21.1881064 26.9431277,20.4234894 L26.9431277,6.57651064 C26.9431277,5.81189362 27.5022563,5.19204255 28.1931277,5.19204255 C28.8829617,5.19204255 29.4431277,5.81189362 29.4431277,6.57651064 L29.4431277,20.4234894 C29.4431277,21.1881064 28.8829617,21.8079574 28.1931277,21.8079574 Z" id="Shape"></path>
                        <path d="M32.2310638,16.6153404 C31.5407111,16.6153404 30.9810638,15.9954894 30.9810638,15.2314468 L30.9810638,11.7697021 C30.9810638,11.0050851 31.5407111,10.385234 32.2310638,10.385234 C32.9214165,10.385234 33.4810638,11.0050851 33.4810638,11.7697021 L33.4810638,15.2314468 C33.4810638,15.9954894 32.9214165,16.6153404 32.2310638,16.6153404 Z" id="Shape"></path>
                        <path d="M37.1507675,15.6510547 C36.4604148,15.6510547 35.9007675,15.0312036 35.9007675,14.2671611 L35.9007675,12.7339878 C35.9007675,11.9693708 36.4604148,11.3495198 37.1507675,11.3495198 C37.8411202,11.3495198 38.4007675,11.9693708 38.4007675,12.7339878 L38.4007675,14.2671611 C38.4007675,15.0312036 37.8411202,15.6510547 37.1507675,15.6510547 Z" id="Shape-Copy-8" transform="translate(37.150767, 13.500287) rotate(90.000000) translate(-37.150767, -13.500287) "></path>
                        <path d="M3.01502965,15.6510547 C2.32467695,15.6510547 1.76502965,15.0312036 1.76502965,14.2671611 L1.76502965,12.7339878 C1.76502965,11.9693708 2.32467695,11.3495198 3.01502965,11.3495198 C3.70538235,11.3495198 4.26502965,11.9693708 4.26502965,12.7339878 L4.26502965,14.2671611 C4.26502965,15.0312036 3.70538235,15.6510547 3.01502965,15.6510547 Z" id="Shape-Copy-9" transform="translate(3.015030, 13.500287) rotate(90.000000) translate(-3.015030, -13.500287) "></path>
                    </g>
                </g>
            </g>
        </g>
    </g>
</svg>
