<svg width="60px" height="60px" viewBox="0 0 60 60" version="1.1" xmlns="http://www.w3.org/2000/svg" xmlns:xlink="http://www.w3.org/1999/xlink">
    <g id="Page-1" stroke="none" stroke-width="1" fill="none" fill-rule="evenodd">
        <g id="First-Screen-3" transform="translate(-40.000000, -192.000000)">
            <g id="Left">
                <g id="New-Project" transform="translate(40.000000, 192.000000)">
                    <rect id="Rectangle" fill="#FFFFFF" x="0" y="0" width="60" height="60" rx="4"></rect>
                    <g id="lines" transform="translate(8.000000, 19.000000)" stroke="#615F97" stroke-linecap="round" stroke-linejoin="round" stroke-width="2">
                        <path d="M0.5,1.5 L17.983797,1.5 M33.9761778,1.5 L43.5,1.5" id="Line"></path>
                        <path d="M0.5,11.5 L17.983797,11.5 M37.0314266,11.5 L43.5,11.5" id="Line-Copy"></path>
                        <path d="M0.5,21.5 L7.00076394,21.5 M25.977475,21.5 L43.5,21.5" id="Line-Copy-2"></path>
                    </g>
                    <path d="M40.8940873,35.530809 C42.0606385,33.6066388 42.8344893,31.1729621 42.9846394,28.764903 C43.079927,27.2193048 42.7305392,25.5968536 41.9740134,24.0711803 C40.7872497,21.6745068 38.7486725,20.328157 36.7793955,19.0273496 C35.3096565,18.0567253 33.9207675,17.1401828 32.9390165,15.8308362 L32.7628788,15.597431 C32.1824907,14.8289015 31.5270276,13.9579014 31.4230775,13.2263751 C31.3191273,12.4863097 30.6376766,11.9597247 29.8927009,12.0024208 C29.1361751,12.0536561 28.550012,12.6713261 28.550012,13.4199307 L28.550012,38.7814041 C27.3401482,38.0584171 25.8501967,37.6143778 24.2187575,37.6143778 C20.2397784,37.6143778 17,40.1676036 17,43.3071889 C17,46.4467742 20.2397784,49 24.2187575,49 C28.1977366,49 31.437515,46.4467742 31.437515,43.3071889 L31.437515,26.7183374 C33.6060297,27.5352558 37.1547709,29.6159783 38.1307469,34.4747925 C37.9488342,34.7395082 37.775584,35.0241488 37.5734588,35.2518612 C37.0450458,35.8410672 37.1027958,36.7405313 37.7033965,37.2585771 C38.2982221,37.7823158 39.210673,37.7196948 39.7390861,37.1304889 C40.1260115,36.6978352 40.4696243,36.1911751 40.7987997,35.6617436 C40.8334497,35.6218939 40.8653025,35.5791979 40.8940873,35.530809 Z" id="Shape-Copy-6" fill="#615F97" fill-rule="nonzero"></path>
                </g>
            </g>
        </g>
    </g>
</svg>