
<svg width="180px" height="120px" viewBox="0 0 180 120" version="1.1" xmlns="http://www.w3.org/2000/svg" xmlns:xlink="http://www.w3.org/1999/xlink">
    <defs>
        <linearGradient x1="-5.30713338%" y1="0%" x2="100%" y2="91.5906263%" id="linearGradient-1">
            <stop stop-color="#C0D1FF" offset="0%"></stop>
            <stop stop-color="#CBC7F9" offset="100%"></stop>
        </linearGradient>
    </defs>
    <g id="Page-1" stroke="none" stroke-width="1" fill="none" fill-rule="evenodd">
        <g id="First-Screen-2" transform="translate(-330.000000, -72.000000)">
            <g id="Empty-Project" transform="translate(330.000000, 72.000000)">
                <rect id="Rectangle-Copy-3" fill="url(#linearGradient-1)" opacity="0.5" x="0" y="0" width="180" height="120" rx="4"></rect>
                <rect id="Rectangle-Copy-17" fill="#C6C7ED" opacity="0.496603261" x="30" y="23" width="120" height="1"></rect>
                <rect id="Rectangle-Copy-16" fill="#C6C7ED" opacity="0.496603261" x="30" y="35" width="120" height="1"></rect>
                <rect id="Rectangle-Copy-15" fill="#C6C7ED" opacity="0.496603261" x="30" y="47" width="120" height="1"></rect>
                <rect id="Rectangle-Copy-14" fill="#C6C7ED" opacity="0.496603261" x="30" y="59" width="120" height="1"></rect>
                <rect id="Rectangle-Copy-13" fill="#C6C7ED" opacity="0.496603261" x="30" y="71" width="120" height="1"></rect>
                <rect id="Rectangle-Copy-12" fill="#C6C7ED" opacity="0.496603261" x="30" y="83" width="120" height="1"></rect>
                <rect id="Rectangle-Copy-11" fill="#C6C7ED" opacity="0.496603261" x="30" y="95" width="120" height="1"></rect>
                <path d="M141.330107,68.0685951 L133.717259,70.4506237 C132.794946,70.7197319 132.047366,71.703659 132.047366,72.6469395 L132.047366,80.746117 C132.047366,80.746117 132.047366,80.8568438 132.047366,80.8596471 C132.047366,80.8596471 131.49576,80.4791112 130.267152,80.6571151 C128.462955,80.9192153 127,82.3355377 127,83.8212395 C127,85.3069414 128.462955,86.2172842 130.267152,85.9551839 C132.072719,85.6944853 133.395889,84.3216127 133.395889,82.83521 C133.395889,82.83521 133.395889,76.4817322 133.395889,75.8229776 C133.395889,75.164223 134.170193,74.8817995 134.170193,74.8817995 L140.901156,72.7240278 C140.901156,72.7240278 141.645996,72.4682348 141.645996,73.1732424 C141.645996,73.87825 141.645996,78.8013894 141.645996,78.8013894 C141.645996,78.8055942 140.960086,78.4019318 139.731478,78.5547068 C137.927281,78.7782629 136.464325,80.1651515 136.464325,81.6501526 C136.464325,83.1365552 137.927281,84.0770325 139.731478,83.8527756 C141.537045,83.6292196 143,82.2430317 143,80.7566291 L143,69.2893935 C143,68.346113 142.251734,67.7994868 141.330107,68.0685951 Z" id="Shape-Copy" fill="#CACDEF" fill-rule="nonzero"></path>
                <path d="M63.0375776,23.065478 C62.9930196,22.7568243 62.7009173,22.5372053 62.381585,22.5550123 C62.0573019,22.5763806 61.8060444,22.8339877 61.8060444,23.1462028 L61.8060444,33.723528 C60.9489614,33.4115148 59.3851727,33.6640699 58.8339154,33.9134322 C57.7935479,34.3840445 57,35.2314092 57,36.312271 C57,37.3931328 57.6446282,38.4599735 59.3502089,38.4599735 C61.0557895,38.4599735 63.0437662,36.9204682 63.0437662,35.6110642 L63.0437662,28.6924726 C63.0375776,26.9996934 63.0821356,23.3705703 63.0375776,23.065478 Z" id="Shape-Copy-7" fill="#CACDEF" fill-rule="nonzero"></path>
                <path d="M52.0973051,80.1518154 C52.5973447,79.3493157 52.9290542,78.3343199 52.9934157,77.3300082 C53.0342605,76.6853968 52.8844962,76.0087329 52.5602131,75.3724314 C52.0515094,74.3728682 51.1776778,73.8113559 50.3335516,73.2688377 C49.7035512,72.8640264 49.108207,72.4817707 48.6873816,71.9356911 L48.6118805,71.8383464 C48.3630984,71.5178214 48.0821356,71.1545597 48.0375776,70.8494674 C47.9930196,70.5408137 47.7009173,70.3211947 47.381585,70.3390017 C47.0573019,70.36037 46.8060444,70.6179771 46.8060444,70.9301922 L46.8060444,81.5075174 C45.9489614,81.1955042 44.3851727,81.4480593 43.8339154,81.6974216 C42.7935479,82.1680339 42,83.0153986 42,84.0962604 C42,85.1771222 42.6446282,86.243963 44.3502089,86.243963 C46.0557895,86.243963 48.0437662,84.7044576 48.0437662,83.3950536 L48.0437662,76.476462 C48.9732953,76.8171682 50.4944554,77.68496 50.9128054,79.7113903 C50.8348289,79.8217933 50.7605656,79.9405063 50.6739251,80.0354767 C50.447422,80.2812125 50.4721764,80.6563455 50.7296225,80.8724031 C50.9845932,81.0908349 51.3757133,81.0647181 51.6022164,80.8189822 C51.7680711,80.6385385 51.91536,80.4272295 52.0564603,80.2064233 C52.071313,80.1898035 52.0849666,80.1719966 52.0973051,80.1518154 Z" id="Shape-Copy-8" fill="#CACDEF" fill-rule="nonzero"></path>
                <circle id="Path" fill="#CACDEF" cx="90" cy="62" r="30"></circle>
                <circle id="Oval" fill="#FFFFFF" cx="90" cy="58" r="30"></circle>
                <path d="M88.6904762,56.6904762 L88.6904762,50 C88.6904762,49.4477153 89.1381914,49 89.6904762,49 L91.3095238,49 C91.8618086,49 92.3095238,49.4477153 92.3095238,50 L92.3095238,56.6904762 L99,56.6904762 C99.5522847,56.6904762 100,57.1381914 100,57.6904762 L100,59.3095238 C100,59.8618086 99.5522847,60.3095238 99,60.3095238 L92.3095238,60.3095238 L92.3095238,67 C92.3095238,67.5522847 91.8618086,68 91.3095238,68 L89.6904762,68 C89.1381914,68 88.6904762,67.5522847 88.6904762,67 L88.6904762,60.3095238 L82,60.3095238 C81.4477153,60.3095238 81,59.8618086 81,59.3095238 L81,57.6904762 C81,57.1381914 81.4477153,56.6904762 82,56.6904762 L88.6904762,56.6904762 Z" id="Combined-Shape" fill="#CACDEF"></path>
            </g>
            <g id="hover" transform="translate(325.000000, 67.000000)">
                <g id="Group-2">
                    <rect id="Rectangle-Copy-3" fill="url(#linearGradient-1)" opacity="0.5" x="5" y="5" width="180" height="120" rx="4"></rect>
                    <rect id="Rectangle-Copy-17" fill="#C6C7ED" x="35" y="28" width="120" height="1"></rect>
                    <rect id="Rectangle-Copy-16" fill="#C6C7ED" x="35" y="40" width="120" height="1"></rect>
                    <rect id="Rectangle-Copy-15" fill="#C6C7ED" x="35" y="52" width="120" height="1"></rect>
                    <rect id="Rectangle-Copy-14" fill="#C6C7ED" x="35" y="64" width="120" height="1"></rect>
                    <rect id="Rectangle-Copy-13" fill="#C6C7ED" x="35" y="76" width="120" height="1"></rect>
                    <rect id="Rectangle-Copy-12" fill="#C6C7ED" x="35" y="88" width="120" height="1"></rect>
                    <rect id="Rectangle-Copy-11" fill="#C6C7ED" x="35" y="100" width="120" height="1"></rect>
                    <path d="M146.330107,73.0685951 L138.717259,75.4506237 C137.794946,75.7197319 137.047366,76.703659 137.047366,77.6469395 L137.047366,85.746117 C137.047366,85.746117 137.047366,85.8568438 137.047366,85.8596471 C137.047366,85.8596471 136.49576,85.4791112 135.267152,85.6571151 C133.462955,85.9192153 132,87.3355377 132,88.8212395 C132,90.3069414 133.462955,91.2172842 135.267152,90.9551839 C137.072719,90.6944853 138.395889,89.3216127 138.395889,87.83521 C138.395889,87.83521 138.395889,81.4817322 138.395889,80.8229776 C138.395889,80.164223 139.170193,79.8817995 139.170193,79.8817995 L145.901156,77.7240278 C145.901156,77.7240278 146.645996,77.4682348 146.645996,78.1732424 C146.645996,78.87825 146.645996,83.8013894 146.645996,83.8013894 C146.645996,83.8055942 145.960086,83.4019318 144.731478,83.5547068 C142.927281,83.7782629 141.464325,85.1651515 141.464325,86.6501526 C141.464325,88.1365552 142.927281,89.0770325 144.731478,88.8527756 C146.537045,88.6292196 148,87.2430317 148,85.7566291 L148,74.2893935 C148,73.346113 147.251734,72.7994868 146.330107,73.0685951 Z" id="Shape-Copy" fill="#615F97" fill-rule="nonzero"></path>
                    <path d="M68.0375776,28.065478 C67.9930196,27.7568243 67.7009173,27.5372053 67.381585,27.5550123 C67.0573019,27.5763806 66.8060444,27.8339877 66.8060444,28.1462028 L66.8060444,38.723528 C65.9489614,38.4115148 64.3851727,38.6640699 63.8339154,38.9134322 C62.7935479,39.3840445 62,40.2314092 62,41.312271 C62,42.3931328 62.6446282,43.4599735 64.3502089,43.4599735 C66.0557895,43.4599735 68.0437662,41.9204682 68.0437662,40.6110642 L68.0437662,33.6924726 C68.0375776,31.9996934 68.0821356,28.3705703 68.0375776,28.065478 Z" id="Shape-Copy-7" fill="#615F97" fill-rule="nonzero"></path>
                    <path d="M57.0973051,85.1518154 C57.5973447,84.3493157 57.9290542,83.3343199 57.9934157,82.3300082 C58.0342605,81.6853968 57.8844962,81.0087329 57.5602131,80.3724314 C57.0515094,79.3728682 56.1776778,78.8113559 55.3335516,78.2688377 C54.7035512,77.8640264 54.108207,77.4817707 53.6873816,76.9356911 L53.6118805,76.8383464 C53.3630984,76.5178214 53.0821356,76.1545597 53.0375776,75.8494674 C52.9930196,75.5408137 52.7009173,75.3211947 52.381585,75.3390017 C52.0573019,75.36037 51.8060444,75.6179771 51.8060444,75.9301922 L51.8060444,86.5075174 C50.9489614,86.1955042 49.3851727,86.4480593 48.8339154,86.6974216 C47.7935479,87.1680339 47,88.0153986 47,89.0962604 C47,90.1771222 47.6446282,91.243963 49.3502089,91.243963 C51.0557895,91.243963 53.0437662,89.7044576 53.0437662,88.3950536 L53.0437662,81.476462 C53.9732953,81.8171682 55.4944554,82.68496 55.9128054,84.7113903 C55.8348289,84.8217933 55.7605656,84.9405063 55.6739251,85.0354767 C55.447422,85.2812125 55.4721764,85.6563455 55.7296225,85.8724031 C55.9845932,86.0908349 56.3757133,86.0647181 56.6022164,85.8189822 C56.7680711,85.6385385 56.91536,85.4272295 57.0564603,85.2064233 C57.071313,85.1898035 57.0849666,85.1719966 57.0973051,85.1518154 Z" id="Shape-Copy-8" fill="#615F97" fill-rule="nonzero"></path>
                    <circle id="Path" fill="#C6C7ED" cx="95" cy="67" r="30"></circle>
                    <circle id="Oval" fill="#FFFFFF" cx="95" cy="63" r="30"></circle>
                    <path d="M93.6904762,61.6904762 L93.6904762,55 C93.6904762,54.4477153 94.1381914,54 94.6904762,54 L96.3095238,54 C96.8618086,54 97.3095238,54.4477153 97.3095238,55 L97.3095238,61.6904762 L104,61.6904762 C104.552285,61.6904762 105,62.1381914 105,62.6904762 L105,64.3095238 C105,64.8618086 104.552285,65.3095238 104,65.3095238 L97.3095238,65.3095238 L97.3095238,72 C97.3095238,72.5522847 96.8618086,73 96.3095238,73 L94.6904762,73 C94.1381914,73 93.6904762,72.5522847 93.6904762,72 L93.6904762,65.3095238 L87,65.3095238 C86.4477153,65.3095238 86,64.8618086 86,64.3095238 L86,62.6904762 C86,62.1381914 86.4477153,61.6904762 87,61.6904762 L93.6904762,61.6904762 Z" id="Combined-Shape" fill="#615F97"></path>
                </g>
            </g>
        </g>
    </g>
</svg>