<svg width="218px" height="231px" viewBox="0 0 218 231" version="1.1" xmlns="http://www.w3.org/2000/svg" xmlns:xlink="http://www.w3.org/1999/xlink">
    <g id="Page-1" stroke="none" stroke-width="1" fill="none" fill-rule="evenodd">
        <g id="First-Screen_-No-recordings" transform="translate(-1004.000000, -177.000000)">
            <g id="Illustration" transform="translate(1004.000000, 175.000000)">
                <ellipse id="Oval-3" fill="#E8E9F8" cx="109" cy="195" rx="109" ry="38"></ellipse>
                <g id="Box" transform="translate(27.000000, 62.000000)">
                    <path d="M1.5,34.6573044 L1.5,125.349295 L81.5,146.351791 L81.5,56.8143574 L1.5,34.6573044 Z" id="Rectangle-2" stroke="#979797" fill="#FFFFFF"></path>
                    <path d="M82.5,56.3818623 L82.5,146.353117 L162.07817,125.629867 L162.07817,34.6710224 L82.5,56.3818623 Z" id="Rectangle-5" stroke="#979797" fill="#FFFFFF"></path>
                    <polygon id="Triangle" fill="#C6C7ED" transform="translate(44.553531, 28.314065) rotate(-81.000000) translate(-44.553531, -28.314065) " points="32.4367203 -12.9901983 66.416436 62.6928408 22.6906251 69.6183289"></polygon>
                    <polygon id="Triangle-Copy" fill="#C6C7ED" transform="translate(117.553531, 28.314065) scale(-1, 1) rotate(-81.000000) translate(-117.553531, -28.314065) " points="105.43672 -12.9901983 139.416436 62.6928408 95.6906251 69.6183289"></polygon>
                    <polygon id="Path-2" stroke="#7F7CBC" stroke-width="2" points="0.78596655 34.1013327 0.78596655 125.762621 81.8693549 147.026397 162.665058 125.762621 162.665058 34.1013327 81.8693549 56.5513374"></polygon>
                    <polyline id="Path-4" stroke="#7F7CBC" stroke-width="2" points="0.0361157343 33.7322521 81.9472339 11.8510839 163.408584 33.7322521"></polyline>
                    <path d="M81.8599644,12.0489986 L81.8599644,147.123453" id="Path-5" stroke="#7F7CBC" stroke-width="2"></path>
                </g>
                <g id="face" transform="translate(62.919789, 150.191291) rotate(1.000000) translate(-62.919789, -150.191291) translate(32.919789, 130.191291)">
                    <circle id="Oval" fill="#7F7CBC" cx="54" cy="26" r="2"></circle>
                    <circle id="Oval-Copy-2" fill="#7F7CBC" cx="14.8488682" cy="17.6820146" r="2"></circle>
                    <circle id="Oval-Copy" fill="#FFFFFF" cx="2" cy="30" r="2"></circle>
                    <path d="M52.7548943,30.6796016 L56.7548943,30.6796016 C57.8594638,30.6796016 58.7548943,31.5750321 58.7548943,32.6796016 L58.7548943,32.6796016 C58.7548943,33.7841711 57.8594638,34.6796016 56.7548943,34.6796016 L52.7548943,34.6796016 C51.6503248,34.6796016 50.7548943,33.7841711 50.7548943,32.6796016 L50.7548943,32.6796016 C50.7548943,31.5750321 51.6503248,30.6796016 52.7548943,30.6796016 Z" id="Rectangle-31" fill="#E8E9F8" transform="translate(54.754894, 32.679602) rotate(12.000000) translate(-54.754894, -32.679602) "></path>
                    <path d="M10.5802636,21.4212566 L14.5802636,21.4212566 C15.6848331,21.4212566 16.5802636,22.3166871 16.5802636,23.4212566 L16.5802636,23.4212566 C16.5802636,24.5258261 15.6848331,25.4212566 14.5802636,25.4212566 L10.5802636,25.4212566 C9.47569409,25.4212566 8.58026359,24.5258261 8.58026359,23.4212566 L8.58026359,23.4212566 C8.58026359,22.3166871 9.47569409,21.4212566 10.5802636,21.4212566 Z" id="Rectangle-31-Copy-4" fill="#E8E9F8" transform="translate(12.580264, 23.421257) rotate(14.000000) translate(-12.580264, -23.421257) "></path>
                    <path d="M11.7258583,4.47735126 C12.8412179,1.6908524 14.9656327,0.297602973 18.0991025,0.297602973" id="Path-6" stroke="#7F7CBC" stroke-width="2" stroke-linecap="round"></path>
                    <path d="M49.8581365,12.3000815 C50.9734962,9.51358259 53.0979109,8.12033317 56.2313808,8.12033317" id="Path-6-Copy" stroke="#7F7CBC" stroke-width="2" stroke-linecap="round" transform="translate(53.044759, 10.210207) rotate(67.000000) translate(-53.044759, -10.210207) "></path>
                    <path d="M18.2804947,32.6253409 C28.6436709,25.666607 38.1668936,27.8246345 46.8501628,39.0994234" id="Path-10" stroke="#7F7CBC" stroke-width="2" stroke-linecap="round"></path>
                </g>
                <path d="M134.712347,110.092632 C121.146248,70.5965442 126.77281,46.8917726 151.592032,38.9783175 C159.742295,37.0940948 164.489763,39.1380663 165.834435,45.1102322 C167.179107,51.082398 164.076494,55.1310333 156.526594,57.2561382 C147.501857,58.5105657 138.629495,53.7637298 129.909509,43.0156306 C121.189522,32.2675313 116.487247,26.2763889 115.802681,25.0422031" id="Path-11" stroke="#8481BC" stroke-width="2" stroke-linecap="round" stroke-dasharray="6,6"></path>
                <path d="M114.947044,13.4474206 C115.530319,12.5113378 115.917245,11.327387 115.99232,10.1558988 C116.039964,9.40398611 115.86527,8.61468555 115.487007,7.87246607 C114.893625,6.70651682 113.874336,6.05153582 112.889698,5.41871063 C112.154828,4.94651503 111.460384,4.50062945 110.969508,3.86365005 L110.881439,3.75010155 C110.591245,3.37622233 110.263514,2.95249256 110.211539,2.59661493 C110.159564,2.2365831 109.818838,1.9804066 109.44635,2.00117766 C109.068088,2.02610295 108.775006,2.32659106 108.775006,2.6907771 L108.775006,15.0287912 C108.170074,14.6770678 107.425098,14.4610487 106.609379,14.4610487 C104.619889,14.4610487 103,15.7031585 103,17.2305243 C103,18.7578902 104.619889,20 106.609379,20 C108.598868,20 110.218757,18.7578902 110.218757,17.2305243 L110.218757,9.16027225 C111.303015,9.55769201 113.077385,10.5699354 113.565373,12.9336828 C113.474417,13.0624635 113.387792,13.2009372 113.286729,13.3117163 C113.022523,13.598357 113.051398,14.0359342 113.351698,14.2879564 C113.649111,14.5427482 114.105337,14.512284 114.369543,14.2256432 C114.563006,14.0151631 114.734812,13.7686798 114.8994,13.5111185 C114.916725,13.4917322 114.932651,13.4709611 114.947044,13.4474206 Z" id="Shape-Copy-6" fill="#C6C7ED" fill-rule="nonzero" transform="translate(109.500000, 11.000000) rotate(23.000000) translate(-109.500000, -11.000000) "></path>
            </g>
        </g>
    </g>
</svg>