<svg width="180px" height="120px" viewBox="0 0 180 120" version="1.1" xmlns="http://www.w3.org/2000/svg" xmlns:xlink="http://www.w3.org/1999/xlink">
    <defs>
        <linearGradient x1="-5.30713338%" y1="0%" x2="100%" y2="91.5906263%" id="linearGradient-1">
            <stop stop-color="#C0D1FF" offset="0%"></stop>
            <stop stop-color="#CBC7F9" offset="100%"></stop>
        </linearGradient>
    </defs>
    <g id="Page-1" stroke="none" stroke-width="1" fill="none" fill-rule="evenodd">
        <g id="Hover-Project" transform="translate(-5.000000, -5.000000)">
            <rect id="Rectangle-Copy-3" fill="url(#linearGradient-1)" opacity="0.5" x="5" y="5" width="180" height="120" rx="4"></rect>
            <rect id="Rectangle-Copy-4" fill="#C6C7ED" x="35" y="31" width="120" height="1"></rect>
            <rect id="Rectangle-Copy-5" fill="#C6C7ED" x="35" y="43" width="120" height="1"></rect>
            <rect id="Rectangle-Copy-6" fill="#C6C7ED" x="35" y="54" width="120" height="1"></rect>
            <rect id="Rectangle-Copy-7" fill="#C6C7ED" x="35" y="65" width="120" height="1"></rect>
            <rect id="Rectangle-Copy-8" fill="#C6C7ED" x="35" y="76" width="120" height="1"></rect>
            <rect id="Rectangle-Copy-9" fill="#C6C7ED" x="35" y="87" width="120" height="1"></rect>
            <rect id="Rectangle-Copy-10" fill="#C6C7ED" x="35" y="98" width="120" height="1"></rect>
            <path d="M146.330107,73.0685951 L138.717259,75.4506237 C137.794946,75.7197319 137.047366,76.703659 137.047366,77.6469395 L137.047366,85.746117 C137.047366,85.746117 137.047366,85.8568438 137.047366,85.8596471 C137.047366,85.8596471 136.49576,85.4791112 135.267152,85.6571151 C133.462955,85.9192153 132,87.3355377 132,88.8212395 C132,90.3069414 133.462955,91.2172842 135.267152,90.9551839 C137.072719,90.6944853 138.395889,89.3216127 138.395889,87.83521 C138.395889,87.83521 138.395889,81.4817322 138.395889,80.8229776 C138.395889,80.164223 139.170193,79.8817995 139.170193,79.8817995 L145.901156,77.7240278 C145.901156,77.7240278 146.645996,77.4682348 146.645996,78.1732424 C146.645996,78.87825 146.645996,83.8013894 146.645996,83.8013894 C146.645996,83.8055942 145.960086,83.4019318 144.731478,83.5547068 C142.927281,83.7782629 141.464325,85.1651515 141.464325,86.6501526 C141.464325,88.1365552 142.927281,89.0770325 144.731478,88.8527756 C146.537045,88.6292196 148,87.2430317 148,85.7566291 L148,74.2893935 C148,73.346113 147.251734,72.7994868 146.330107,73.0685951 Z" id="Shape-Copy" fill="#615F97" fill-rule="nonzero"></path>
            <path d="M68.0375776,28.5114754 C67.9930196,28.2028216 67.7009173,27.9832027 67.381585,28.0010096 C67.0573019,28.0223779 66.8060444,28.2799851 66.8060444,28.5922002 L66.8060444,39.1695254 C65.9489614,38.8575121 64.3851727,39.1100672 63.8339154,39.3594295 C62.7935479,39.8300419 62,40.6774065 62,41.7582683 C62,42.8391301 62.6446282,43.9059709 64.3502089,43.9059709 C66.0557895,43.9059709 68.0437662,42.3664655 68.0437662,41.0570615 L68.0437662,34.1384699 C68.0375776,32.4456908 68.0821356,28.8165677 68.0375776,28.5114754 Z" id="Shape-Copy-7" fill="#615F97" fill-rule="nonzero"></path>
            <path d="M57.0973051,85.8138233 C57.5973447,85.0113237 57.9290542,83.9963278 57.9934157,82.9920161 C58.0342605,82.3474047 57.8844962,81.6707408 57.5602131,81.0344393 C57.0515094,80.0348762 56.1776778,79.4733638 55.3335516,78.9308456 C54.7035512,78.5260344 54.108207,78.1437786 53.6873816,77.597699 L53.6118805,77.5003544 C53.3630984,77.1798294 53.0821356,76.8165677 53.0375776,76.5114754 C52.9930196,76.2028216 52.7009173,75.9832027 52.381585,76.0010096 C52.0573019,76.0223779 51.8060444,76.2799851 51.8060444,76.5922002 L51.8060444,87.1695254 C50.9489614,86.8575121 49.3851727,87.1100672 48.8339154,87.3594295 C47.7935479,87.8300419 47,88.6774065 47,89.7582683 C47,90.8391301 47.6446282,91.9059709 49.3502089,91.9059709 C51.0557895,91.9059709 53.0437662,90.3664655 53.0437662,89.0570615 L53.0437662,82.1384699 C53.9732953,82.4791761 55.4944554,83.3469679 55.9128054,85.3733982 C55.8348289,85.4838013 55.7605656,85.6025142 55.6739251,85.6974846 C55.447422,85.9432204 55.4721764,86.3183534 55.7296225,86.534411 C55.9845932,86.7528429 56.3757133,86.726726 56.6022164,86.4809902 C56.7680711,86.3005465 56.91536,86.0892374 57.0564603,85.8684313 C57.071313,85.8518115 57.0849666,85.8340045 57.0973051,85.8138233 Z" id="Shape-Copy-8" fill="#615F97" fill-rule="nonzero"></path>
            <path d="M111.720899,49.1714877 L92.2129764,55.1265591 C89.8495503,55.7993298 87.9338758,58.2591475 87.9338758,60.6173488 L87.9338758,80.8652925 C87.9338758,80.8652925 87.9338758,81.1421096 87.9338758,81.1491176 C87.9338758,81.1491176 86.5203854,80.1977779 83.3720771,80.6427877 C78.7488223,81.2980382 75,84.8388442 75,88.5530988 C75,92.2673534 78.7488223,94.5432104 83.3720771,93.8879598 C87.9988437,93.2362133 91.3894647,89.8040317 91.3894647,86.0880251 C91.3894647,86.0880251 91.3894647,70.2043305 91.3894647,68.557444 C91.3894647,66.9105576 93.3736188,66.2044988 93.3736188,66.2044988 L110.621713,60.8100695 C110.621713,60.8100695 112.530364,60.170587 112.530364,61.933106 C112.530364,63.6956249 112.530364,76.0034734 112.530364,76.0034734 C112.530364,76.0139854 110.772719,75.0048294 107.624411,75.3867669 C103.001156,75.9456572 99.252334,79.4128788 99.252334,83.1253814 C99.252334,86.8413881 103.001156,89.1925813 107.624411,88.6319391 C112.251178,88.0730489 116,84.6075793 116,80.8915726 L116,52.2234837 C116,49.8652824 114.08257,48.498717 111.720899,49.1714877 Z" id="Shape-Copy-4" fill="#C6C7ED" fill-rule="nonzero"></path>
            <path d="M111.720899,46.1714877 L92.2129764,52.1265591 C89.8495503,52.7993298 87.9338758,55.2591475 87.9338758,57.6173488 L87.9338758,77.8652925 C87.9338758,77.8652925 87.9338758,78.1421096 87.9338758,78.1491176 C87.9338758,78.1491176 86.5203854,77.1977779 83.3720771,77.6427877 C78.7488223,78.2980382 75,81.8388442 75,85.5530988 C75,89.2673534 78.7488223,91.5432104 83.3720771,90.8879598 C87.9988437,90.2362133 91.3894647,86.8040317 91.3894647,83.0880251 C91.3894647,83.0880251 91.3894647,67.2043305 91.3894647,65.557444 C91.3894647,63.9105576 93.3736188,63.2044988 93.3736188,63.2044988 L110.621713,57.8100695 C110.621713,57.8100695 112.530364,57.170587 112.530364,58.933106 C112.530364,60.6956249 112.530364,73.0034734 112.530364,73.0034734 C112.530364,73.0139854 110.772719,72.0048294 107.624411,72.3867669 C103.001156,72.9456572 99.252334,76.4128788 99.252334,80.1253814 C99.252334,83.8413881 103.001156,86.1925813 107.624411,85.6319391 C112.251178,85.0730489 116,81.6075793 116,77.8915726 L116,49.2234837 C116,46.8652824 114.08257,45.498717 111.720899,46.1714877 Z" id="Shape" fill="#FFFFFF" fill-rule="nonzero"></path>
        </g>
    </g>
</svg>