<svg width="180px" height="120px" viewBox="0 0 180 120" version="1.1" xmlns="http://www.w3.org/2000/svg" xmlns:xlink="http://www.w3.org/1999/xlink">
    <defs>
        <linearGradient x1="-5.30713338%" y1="0%" x2="100%" y2="91.5906263%" id="linearGradient-1">
            <stop stop-color="#C0D1FF" offset="0%"></stop>
            <stop stop-color="#CBC7F9" offset="100%"></stop>
        </linearGradient>
    </defs>
    <g id="Page-1" stroke="none" stroke-width="1" fill="none" fill-rule="evenodd">
        <g id="First-Screen" transform="translate(-540.000000, -72.000000)">
            <g id="Project-2" transform="translate(540.000000, 72.000000)">
                <rect id="Rectangle-Copy-3" fill="url(#linearGradient-1)" opacity="0.5" x="0" y="0" width="180" height="120" rx="4"></rect>
                <rect id="Rectangle-Copy-4" fill="#C6C7ED" x="30" y="26" width="120" height="1"></rect>
                <rect id="Rectangle-Copy-5" fill="#C6C7ED" x="30" y="38" width="120" height="1"></rect>
                <rect id="Rectangle-Copy-6" fill="#C6C7ED" x="30" y="49" width="120" height="1"></rect>
                <rect id="Rectangle-Copy-7" fill="#C6C7ED" x="30" y="60" width="120" height="1"></rect>
                <rect id="Rectangle-Copy-8" fill="#C6C7ED" x="30" y="71" width="120" height="1"></rect>
                <rect id="Rectangle-Copy-9" fill="#C6C7ED" x="30" y="82" width="120" height="1"></rect>
                <rect id="Rectangle-Copy-10" fill="#C6C7ED" x="30" y="93" width="120" height="1"></rect>
                <path d="M141.330107,68.0685951 L133.717259,70.4506237 C132.794946,70.7197319 132.047366,71.703659 132.047366,72.6469395 L132.047366,80.746117 C132.047366,80.746117 132.047366,80.8568438 132.047366,80.8596471 C132.047366,80.8596471 131.49576,80.4791112 130.267152,80.6571151 C128.462955,80.9192153 127,82.3355377 127,83.8212395 C127,85.3069414 128.462955,86.2172842 130.267152,85.9551839 C132.072719,85.6944853 133.395889,84.3216127 133.395889,82.83521 C133.395889,82.83521 133.395889,76.4817322 133.395889,75.8229776 C133.395889,75.164223 134.170193,74.8817995 134.170193,74.8817995 L140.901156,72.7240278 C140.901156,72.7240278 141.645996,72.4682348 141.645996,73.1732424 C141.645996,73.87825 141.645996,78.8013894 141.645996,78.8013894 C141.645996,78.8055942 140.960086,78.4019318 139.731478,78.5547068 C137.927281,78.7782629 136.464325,80.1651515 136.464325,81.6501526 C136.464325,83.1365552 137.927281,84.0770325 139.731478,83.8527756 C141.537045,83.6292196 143,82.2430317 143,80.7566291 L143,69.2893935 C143,68.346113 142.251734,67.7994868 141.330107,68.0685951 Z" id="Shape-Copy" fill="#C6C7ED" fill-rule="nonzero"></path>
                <path d="M63.0375776,23.5114754 C62.9930196,23.2028216 62.7009173,22.9832027 62.381585,23.0010096 C62.0573019,23.0223779 61.8060444,23.2799851 61.8060444,23.5922002 L61.8060444,34.1695254 C60.9489614,33.8575121 59.3851727,34.1100672 58.8339154,34.3594295 C57.7935479,34.8300419 57,35.6774065 57,36.7582683 C57,37.8391301 57.6446282,38.9059709 59.3502089,38.9059709 C61.0557895,38.9059709 63.0437662,37.3664655 63.0437662,36.0570615 L63.0437662,29.1384699 C63.0375776,27.4456908 63.0821356,23.8165677 63.0375776,23.5114754 Z" id="Shape-Copy-7" fill="#C6C7ED" fill-rule="nonzero"></path>
                <path d="M52.0973051,80.8138233 C52.5973447,80.0113237 52.9290542,78.9963278 52.9934157,77.9920161 C53.0342605,77.3474047 52.8844962,76.6707408 52.5602131,76.0344393 C52.0515094,75.0348762 51.1776778,74.4733638 50.3335516,73.9308456 C49.7035512,73.5260344 49.108207,73.1437786 48.6873816,72.597699 L48.6118805,72.5003544 C48.3630984,72.1798294 48.0821356,71.8165677 48.0375776,71.5114754 C47.9930196,71.2028216 47.7009173,70.9832027 47.381585,71.0010096 C47.0573019,71.0223779 46.8060444,71.2799851 46.8060444,71.5922002 L46.8060444,82.1695254 C45.9489614,81.8575121 44.3851727,82.1100672 43.8339154,82.3594295 C42.7935479,82.8300419 42,83.6774065 42,84.7582683 C42,85.8391301 42.6446282,86.9059709 44.3502089,86.9059709 C46.0557895,86.9059709 48.0437662,85.3664655 48.0437662,84.0570615 L48.0437662,77.1384699 C48.9732953,77.4791761 50.4944554,78.3469679 50.9128054,80.3733982 C50.8348289,80.4838013 50.7605656,80.6025142 50.6739251,80.6974846 C50.447422,80.9432204 50.4721764,81.3183534 50.7296225,81.534411 C50.9845932,81.7528429 51.3757133,81.726726 51.6022164,81.4809902 C51.7680711,81.3005465 51.91536,81.0892374 52.0564603,80.8684313 C52.071313,80.8518115 52.0849666,80.8340045 52.0973051,80.8138233 Z" id="Shape-Copy-8" fill="#C6C7ED" fill-rule="nonzero"></path>
                <path d="M106.720899,41.1714877 L87.2129764,47.1265591 C84.8495503,47.7993298 82.9338758,50.2591475 82.9338758,52.6173488 L82.9338758,72.8652925 C82.9338758,72.8652925 82.9338758,73.1421096 82.9338758,73.1491176 C82.9338758,73.1491176 81.5203854,72.1977779 78.3720771,72.6427877 C73.7488223,73.2980382 70,76.8388442 70,80.5530988 C70,84.2673534 73.7488223,86.5432104 78.3720771,85.8879598 C82.9988437,85.2362133 86.3894647,81.8040317 86.3894647,78.0880251 C86.3894647,78.0880251 86.3894647,62.2043305 86.3894647,60.557444 C86.3894647,58.9105576 88.3736188,58.2044988 88.3736188,58.2044988 L105.621713,52.8100695 C105.621713,52.8100695 107.530364,52.170587 107.530364,53.933106 C107.530364,55.6956249 107.530364,68.0034734 107.530364,68.0034734 C107.530364,68.0139854 105.772719,67.0048294 102.624411,67.3867669 C98.0011563,67.9456572 94.252334,71.4128788 94.252334,75.1253814 C94.252334,78.8413881 98.0011563,81.1925813 102.624411,80.6319391 C107.251178,80.0730489 111,76.6075793 111,72.8915726 L111,44.2234837 C111,41.8652824 109.08257,40.498717 106.720899,41.1714877 Z" id="Shape" fill="#C6C7ED" fill-rule="nonzero"></path>
            </g>
        </g>
    </g>
</svg>