<svg width="60px" height="60px" viewBox="0 0 60 60" version="1.1" xmlns="http://www.w3.org/2000/svg" xmlns:xlink="http://www.w3.org/1999/xlink">
    <g id="Page-1" stroke="none" stroke-width="1" fill="none" fill-rule="evenodd">
        <g id="First-Screen" transform="translate(-40.000000, -92.000000)">
            <g id="Left">
                <g id="All-projects" transform="translate(40.000000, 92.000000)">
                    <rect id="Rectangle-Copy" fill="#615F97" x="0" y="0" width="60" height="60" rx="4"></rect>
                    <g id="001-music-1" transform="translate(10.000000, 12.000000)" fill="#FFFFFF">
                        <path d="M37.6902303,2.624003 C34.6649804,-0.401067758 29.7422879,-0.400888628 26.7165902,2.624003 C24.9120269,4.42865587 24.1236724,6.94159178 24.556721,9.43258417 L21.1193808,12.8709096 L21.1165147,12.8737757 C21.1124843,12.8778061 21.1081851,12.8812992 21.1041547,12.8855088 C21.1027217,12.8870314 21.1014677,12.8887331 21.1000347,12.8902557 L13.6076218,20.3816834 C12.7663342,21.222971 12.3030125,22.3412844 12.3030125,23.5306231 C12.3030125,24.6912113 12.7448385,25.7831924 13.5470756,26.6169565 C13.1036374,26.8677396 12.6842923,26.9540806 12.2007288,27.0528712 C11.3564855,27.2253742 10.305794,27.440152 9.13329364,28.6125628 C7.96088279,29.7849736 7.7463737,30.835486 7.57396035,31.6794606 C7.41811658,32.4422889 7.29505375,33.0449744 6.50410186,33.8357472 C5.71395607,34.6259825 5.11144975,34.7490453 4.34871096,34.9047995 C3.50428854,35.0773025 2.45341792,35.2919011 1.28064881,36.4651181 C0.929642083,36.8163039 0.929731648,37.385671 1.28091751,37.7366778 C1.45655522,37.9123155 1.68655912,38 1.91665259,38 C2.14683562,38 2.37701865,37.9121364 2.55265636,37.7364986 C3.34307085,36.9456363 3.94575631,36.8226631 4.70858466,36.6668193 C5.55282795,36.4944955 6.60342987,36.2798073 7.77584072,35.107486 C8.94887852,33.9344482 9.16356674,32.8836671 9.3359801,32.0393343 C9.49173429,31.2767746 9.61470756,30.6743579 10.4050325,29.8842121 C11.1953574,29.093708 11.7980429,28.9706452 12.5608712,28.8147119 C13.2894856,28.6658542 14.1718837,28.4850217 15.1536099,27.684755 C15.6680734,27.8824258 16.2119144,27.9823808 16.7562033,27.9823808 C17.8964601,27.9823808 19.0370753,27.5482574 19.9055012,26.6804584 L30.8360604,15.7498992 C31.3007256,15.8337324 31.7661968,15.8753803 32.2279064,15.8753803 C34.2557562,15.8753803 36.2091772,15.0791441 37.6903199,13.5973744 C39.1559678,12.1320848 39.963131,10.1836795 39.963131,8.11104697 C39.9632206,6.03850404 39.1559678,4.08974047 37.6902303,2.624003 Z M18.6341206,25.4087195 C17.5985657,26.4437371 15.91402,26.4438267 14.8792711,25.4088987 C14.3776154,24.907243 14.1013958,24.2402496 14.1013958,23.5306231 C14.1013958,22.8216235 14.3776154,22.1548988 14.8792711,21.6532431 L21.7551159,14.778294 L25.5098758,18.5330539 L18.6341206,25.4087195 Z M26.7814355,17.2614942 L23.0266756,13.5067342 L25.1618247,11.3711373 C25.5431046,12.1941536 26.0675995,12.9486524 26.7166798,13.5977327 C27.3559079,14.2369608 28.0980466,14.7559026 28.9070907,15.1359285 L26.7814355,17.2614942 Z M36.4186706,12.3259043 C36.418581,12.3259938 36.4184019,12.3260834 36.4183123,12.326173 C34.9269592,13.8182426 32.8124101,14.4053437 30.7619002,13.8964332 C29.7147018,13.6365145 28.7555461,13.09339 27.9881499,12.3259938 C27.2111702,11.5491037 26.6652692,10.5771402 26.4092018,9.51498433 C25.9893193,7.77284809 26.3598513,5.98575003 27.3998845,4.57912572 L32.5721957,9.75143693 C32.7478334,9.92707465 32.9779269,10.0147592 33.2080204,10.0147592 C33.4381138,10.0147592 33.6682073,9.92698508 33.843845,9.75143693 C34.1949413,9.40034064 34.1949413,8.83097351 33.843845,8.47978765 L28.6719816,3.30792426 C29.7181948,2.53784111 30.9607354,2.15279953 32.2035446,2.15279953 C33.7300074,2.15279953 35.2565598,2.73381016 36.4184019,3.89565229 C37.5445074,5.02166827 38.1647477,6.51875362 38.1647477,8.11113654 C38.1648373,9.70342989 37.5447761,11.2002465 36.4186706,12.3259043 Z" id="Shape" fill-rule="nonzero"></path>
                        <path d="M35.1050151,10.1033393 C33.94792,10.1033393 33.9459495,11.901633 35.1050151,11.901633 C36.2621103,11.9017226 36.2639912,10.1033393 35.1050151,10.1033393 Z" id="Path"></path>
                        <path d="M39.3549207,34.2327956 C39.7140008,33.6413528 39.9522025,32.8933 39.9984207,32.1531215 C40.0277515,31.6780424 39.9202052,31.1793405 39.6873365,30.7103858 C39.3220347,29.973707 38.6945333,29.5598719 38.0883634,29.1600355 C37.635958,28.8616894 37.2084393,28.5799666 36.9062432,28.1775054 L36.8520256,28.1057624 C36.6733744,27.8695352 36.471614,27.601811 36.4396168,27.3769577 C36.4076196,27.1494797 36.1978599,26.9876203 35.9685463,27.0007441 C35.7356776,27.0164926 35.5552487,27.2063492 35.5552487,27.436452 L35.5552487,35.2319491 C35.1828364,35.0097206 34.7242093,34.8732338 34.2220304,34.8732338 C32.9972473,34.8732338 32,35.658033 32,36.6230648 C32,37.5880966 32.9972473,38.3728958 34.2220304,38.3728958 C35.4468136,38.3728958 36.4440608,37.5880966 36.4440608,36.6230648 L36.4440608,31.5240572 C37.1115588,31.775158 38.2039089,32.4147212 38.5043275,33.908202 C38.4483323,33.9895691 38.3950036,34.0770607 38.3327867,34.1470539 C38.1701341,34.3281614 38.1879103,34.6046347 38.3727833,34.7638694 C38.5558786,34.9248538 38.8367432,34.9056057 38.9993958,34.7244982 C39.1184967,34.591511 39.2242653,34.435776 39.3255899,34.2730418 C39.3362557,34.2607929 39.3460604,34.2476692 39.3549207,34.2327956 Z" id="Shape" fill-rule="nonzero"></path>
                        <path d="M11.0160392,0.985704194 L5.81711022,2.59234452 C5.18724898,2.77385376 4.67671509,3.43749689 4.67671509,4.07372457 L4.67671509,9.53649077 C4.67671509,9.53649077 4.67671509,9.61117426 4.67671509,9.61306498 C4.67671509,9.61306498 4.30001502,9.35639958 3.46097994,9.47646037 C2.22886653,9.6532428 1.22979242,10.6085297 1.22979242,11.6106119 C1.22979242,12.6126941 2.22886653,13.2267058 3.46097994,13.0499234 C4.69402926,12.8740863 5.59764148,11.9481056 5.59764148,10.9455507 C5.59764148,10.9455507 5.59764148,6.66023116 5.59764148,6.21591168 C5.59764148,5.7715922 6.12642544,5.58110204 6.12642544,5.58110204 L10.7231022,4.12571941 C10.7231022,4.12571941 11.2317643,3.9531911 11.2317643,4.42870748 C11.2317643,4.90422386 11.2317643,8.22480294 11.2317643,8.22480294 C11.2317643,8.22763903 10.763346,7.95537517 9.92431091,8.05841948 C8.6921975,8.20920449 7.69312339,9.1446388 7.69312339,10.1462484 C7.69312339,11.1488033 8.6921975,11.7831402 9.92431091,11.6318825 C11.1573602,11.4810975 12.1564343,10.5461359 12.1564343,9.54358097 L12.1564343,1.80911327 C12.1564343,1.17288559 11.6454325,0.80419496 11.0160392,0.985704194 Z" id="Shape-Copy-3" fill-rule="nonzero" transform="translate(6.693113, 7.009795) rotate(-4.000000) translate(-6.693113, -7.009795) "></path>
                    </g>
                </g>
            </g>
        </g>
    </g>
</svg>