<svg width="60px" height="60px" viewBox="0 0 60 60" version="1.1" xmlns="http://www.w3.org/2000/svg" xmlns:xlink="http://www.w3.org/1999/xlink">
    <g id="Page-1" stroke="none" stroke-width="1" fill="none" fill-rule="evenodd">
        <g id="First-Screen-2" transform="translate(-40.000000, -92.000000)">
            <g id="Left">
                <g id="All-Projects" transform="translate(40.000000, 92.000000)">
                    <rect id="Rectangle-Copy" fill="#FFFFFF" x="0" y="0" width="60" height="60" rx="4"></rect>
                    <path d="M47.6902303,14.624003 C44.6649804,11.5989322 39.7422879,11.5991114 36.7165902,14.624003 C34.9120269,16.4286559 34.1236724,18.9415918 34.556721,21.4325842 L31.1193808,24.8709096 L31.1165147,24.8737757 C31.1124843,24.8778061 31.1081851,24.8812992 31.1041547,24.8855088 C31.1027217,24.8870314 31.1014677,24.8887331 31.1000347,24.8902557 L23.6076218,32.3816834 C22.7663342,33.222971 22.3030125,34.3412844 22.3030125,35.5306231 C22.3030125,36.6912113 22.7448385,37.7831924 23.5470756,38.6169565 C23.1036374,38.8677396 22.6842923,38.9540806 22.2007288,39.0528712 C21.3564855,39.2253742 20.305794,39.440152 19.1332936,40.6125628 C17.9608828,41.7849736 17.7463737,42.835486 17.5739603,43.6794606 C17.4181166,44.4422889 17.2950537,45.0449744 16.5041019,45.8357472 C15.7139561,46.6259825 15.1114497,46.7490453 14.348711,46.9047995 C13.5042885,47.0773025 12.4534179,47.2919011 11.2806488,48.4651181 C10.9296421,48.8163039 10.9297316,49.385671 11.2809175,49.7366778 C11.4565552,49.9123155 11.6865591,50 11.9166526,50 C12.1468356,50 12.3770186,49.9121364 12.5526564,49.7364986 C13.3430709,48.9456363 13.9457563,48.8226631 14.7085847,48.6668193 C15.5528279,48.4944955 16.6034299,48.2798073 17.7758407,47.107486 C18.9488785,45.9344482 19.1635667,44.8836671 19.3359801,44.0393343 C19.4917343,43.2767746 19.6147076,42.6743579 20.4050325,41.8842121 C21.1953574,41.093708 21.7980429,40.9706452 22.5608712,40.8147119 C23.2894856,40.6658542 24.1718837,40.4850217 25.1536099,39.684755 C25.6680734,39.8824258 26.2119144,39.9823808 26.7562033,39.9823808 C27.8964601,39.9823808 29.0370753,39.5482574 29.9055012,38.6804584 L40.8360604,27.7498992 C41.3007256,27.8337324 41.7661968,27.8753803 42.2279064,27.8753803 C44.2557562,27.8753803 46.2091772,27.0791441 47.6903199,25.5973744 C49.1559678,24.1320848 49.963131,22.1836795 49.963131,20.111047 C49.9632206,18.038504 49.1559678,16.0897405 47.6902303,14.624003 Z M28.6341206,37.4087195 C27.5985657,38.4437371 25.91402,38.4438267 24.8792711,37.4088987 C24.3776154,36.907243 24.1013958,36.2402496 24.1013958,35.5306231 C24.1013958,34.8216235 24.3776154,34.1548988 24.8792711,33.6532431 L31.7551159,26.778294 L35.5098758,30.5330539 L28.6341206,37.4087195 Z M36.7814355,29.2614942 L33.0266756,25.5067342 L35.1618247,23.3711373 C35.5431046,24.1941536 36.0675995,24.9486524 36.7166798,25.5977327 C37.3559079,26.2369608 38.0980466,26.7559026 38.9070907,27.1359285 L36.7814355,29.2614942 Z M46.4186706,24.3259043 C46.418581,24.3259938 46.4184019,24.3260834 46.4183123,24.326173 C44.9269592,25.8182426 42.8124101,26.4053437 40.7619002,25.8964332 C39.7147018,25.6365145 38.7555461,25.09339 37.9881499,24.3259938 C37.2111702,23.5491037 36.6652692,22.5771402 36.4092018,21.5149843 C35.9893193,19.7728481 36.3598513,17.98575 37.3998845,16.5791257 L42.5721957,21.7514369 C42.7478334,21.9270746 42.9779269,22.0147592 43.2080204,22.0147592 C43.4381138,22.0147592 43.6682073,21.9269851 43.843845,21.7514369 C44.1949413,21.4003406 44.1949413,20.8309735 43.843845,20.4797876 L38.6719816,15.3079243 C39.7181948,14.5378411 40.9607354,14.1527995 42.2035446,14.1527995 C43.7300074,14.1527995 45.2565598,14.7338102 46.4184019,15.8956523 C47.5445074,17.0216683 48.1647477,18.5187536 48.1647477,20.1111365 C48.1648373,21.7034299 47.5447761,23.2002465 46.4186706,24.3259043 Z" id="Shape" fill="#615F97" fill-rule="nonzero"></path>
                    <path d="M45.1050151,22.1033393 C43.94792,22.1033393 43.9459495,23.901633 45.1050151,23.901633 C46.2621103,23.9017226 46.2639912,22.1033393 45.1050151,22.1033393 Z" id="Path" fill="#615F97"></path>
                    <path d="M49.3549207,46.2327956 C49.7140008,45.6413528 49.9522025,44.8933 49.9984207,44.1531215 C50.0277515,43.6780424 49.9202052,43.1793405 49.6873365,42.7103858 C49.3220347,41.973707 48.6945333,41.5598719 48.0883634,41.1600355 C47.635958,40.8616894 47.2084393,40.5799666 46.9062432,40.1775054 L46.8520256,40.1057624 C46.6733744,39.8695352 46.471614,39.601811 46.4396168,39.3769577 C46.4076196,39.1494797 46.1978599,38.9876203 45.9685463,39.0007441 C45.7356776,39.0164926 45.5552487,39.2063492 45.5552487,39.436452 L45.5552487,47.2319491 C45.1828364,47.0097206 44.7242093,46.8732338 44.2220304,46.8732338 C42.9972473,46.8732338 42,47.658033 42,48.6230648 C42,49.5880966 42.9972473,50.3728958 44.2220304,50.3728958 C45.4468136,50.3728958 46.4440608,49.5880966 46.4440608,48.6230648 L46.4440608,43.5240572 C47.1115588,43.775158 48.2039089,44.4147212 48.5043275,45.908202 C48.4483323,45.9895691 48.3950036,46.0770607 48.3327867,46.1470539 C48.1701341,46.3281614 48.1879103,46.6046347 48.3727833,46.7638694 C48.5558786,46.9248538 48.8367432,46.9056057 48.9993958,46.7244982 C49.1184967,46.591511 49.2242653,46.435776 49.3255899,46.2730418 C49.3362557,46.2607929 49.3460604,46.2476692 49.3549207,46.2327956 Z" id="Shape" fill="#615F97" fill-rule="nonzero"></path>
                    <path d="M21.0160392,12.9857042 L15.8171102,14.5923445 C15.187249,14.7738538 14.6767151,15.4374969 14.6767151,16.0737246 L14.6767151,21.5364908 C14.6767151,21.5364908 14.6767151,21.6111743 14.6767151,21.613065 C14.6767151,21.613065 14.300015,21.3563996 13.4609799,21.4764604 C12.2288665,21.6532428 11.2297924,22.6085297 11.2297924,23.6106119 C11.2297924,24.6126941 12.2288665,25.2267058 13.4609799,25.0499234 C14.6940293,24.8740863 15.5976415,23.9481056 15.5976415,22.9455507 C15.5976415,22.9455507 15.5976415,18.6602312 15.5976415,18.2159117 C15.5976415,17.7715922 16.1264254,17.581102 16.1264254,17.581102 L20.7231022,16.1257194 C20.7231022,16.1257194 21.2317643,15.9531911 21.2317643,16.4287075 C21.2317643,16.9042239 21.2317643,20.2248029 21.2317643,20.2248029 C21.2317643,20.227639 20.763346,19.9553752 19.9243109,20.0584195 C18.6921975,20.2092045 17.6931234,21.1446388 17.6931234,22.1462484 C17.6931234,23.1488033 18.6921975,23.7831402 19.9243109,23.6318825 C21.1573602,23.4810975 22.1564343,22.5461359 22.1564343,21.543581 L22.1564343,13.8091133 C22.1564343,13.1728856 21.6454325,12.804195 21.0160392,12.9857042 Z" id="Shape-Copy-3" fill="#615F97" fill-rule="nonzero" transform="translate(16.693113, 19.009795) rotate(-4.000000) translate(-16.693113, -19.009795) "></path>
                </g>
            </g>
        </g>
    </g>
</svg>