<svg width="180px" height="120px" viewBox="0 0 180 120" version="1.1" xmlns="http://www.w3.org/2000/svg" xmlns:xlink="http://www.w3.org/1999/xlink">
    <defs>
        <linearGradient x1="-5.30713338%" y1="0%" x2="100%" y2="91.5906263%" id="linearGradient-1">
            <stop stop-color="#C0D1FF" offset="0%"></stop>
            <stop stop-color="#CBC7F9" offset="100%"></stop>
        </linearGradient>
    </defs>
    <g id="Page-1" stroke="none" stroke-width="1" fill="none" fill-rule="evenodd">
        <g id="choose-My-Record-1-" transform="translate(-5.000000, -5.000000)">
            <rect id="Rectangle-Copy-3" fill="url(#linearGradient-1)" opacity="0.5" x="5" y="5" width="180" height="120" rx="4"></rect>
            <rect id="Rectangle-Copy-17" fill="#C6C7ED" x="35" y="28" width="120" height="1"></rect>
            <rect id="Rectangle-Copy-16" fill="#C6C7ED" x="35" y="40" width="120" height="1"></rect>
            <rect id="Rectangle-Copy-15" fill="#C6C7ED" x="35" y="52" width="120" height="1"></rect>
            <rect id="Rectangle-Copy-14" fill="#C6C7ED" x="35" y="64" width="120" height="1"></rect>
            <rect id="Rectangle-Copy-13" fill="#C6C7ED" x="35" y="76" width="120" height="1"></rect>
            <rect id="Rectangle-Copy-12" fill="#C6C7ED" x="35" y="88" width="120" height="1"></rect>
            <rect id="Rectangle-Copy-11" fill="#C6C7ED" x="35" y="100" width="120" height="1"></rect>
            <path d="M146.330107,73.0685951 L138.717259,75.4506237 C137.794946,75.7197319 137.047366,76.703659 137.047366,77.6469395 L137.047366,85.746117 C137.047366,85.746117 137.047366,85.8568438 137.047366,85.8596471 C137.047366,85.8596471 136.49576,85.4791112 135.267152,85.6571151 C133.462955,85.9192153 132,87.3355377 132,88.8212395 C132,90.3069414 133.462955,91.2172842 135.267152,90.9551839 C137.072719,90.6944853 138.395889,89.3216127 138.395889,87.83521 C138.395889,87.83521 138.395889,81.4817322 138.395889,80.8229776 C138.395889,80.164223 139.170193,79.8817995 139.170193,79.8817995 L145.901156,77.7240278 C145.901156,77.7240278 146.645996,77.4682348 146.645996,78.1732424 C146.645996,78.87825 146.645996,83.8013894 146.645996,83.8013894 C146.645996,83.8055942 145.960086,83.4019318 144.731478,83.5547068 C142.927281,83.7782629 141.464325,85.1651515 141.464325,86.6501526 C141.464325,88.1365552 142.927281,89.0770325 144.731478,88.8527756 C146.537045,88.6292196 148,87.2430317 148,85.7566291 L148,74.2893935 C148,73.346113 147.251734,72.7994868 146.330107,73.0685951 Z" id="Shape-Copy" fill="#615F97" fill-rule="nonzero"></path>
            <path d="M68.0375776,28.065478 C67.9930196,27.7568243 67.7009173,27.5372053 67.381585,27.5550123 C67.0573019,27.5763806 66.8060444,27.8339877 66.8060444,28.1462028 L66.8060444,38.723528 C65.9489614,38.4115148 64.3851727,38.6640699 63.8339154,38.9134322 C62.7935479,39.3840445 62,40.2314092 62,41.312271 C62,42.3931328 62.6446282,43.4599735 64.3502089,43.4599735 C66.0557895,43.4599735 68.0437662,41.9204682 68.0437662,40.6110642 L68.0437662,33.6924726 C68.0375776,31.9996934 68.0821356,28.3705703 68.0375776,28.065478 Z" id="Shape-Copy-7" fill="#615F97" fill-rule="nonzero"></path>
            <path d="M134.258259,55.95649 L110.575251,53.7090742 C109.082297,53.5728672 107.792249,52.6194181 107.182173,51.1892444 L98.6994774,30.5538815 C97.3422461,27.1487062 92.5233963,27.1487062 91.166165,30.5538815 L82.7513309,51.1892444 C82.2084384,52.6194181 80.8512071,53.5728672 79.3582526,53.7090742 L55.6745662,55.95649 C52.1457648,56.2970075 50.7206719,60.7237355 53.367273,63.1073583 L71.2148647,78.8392686 C72.3685113,79.8608212 72.8435423,81.3590984 72.5042345,82.8573756 L67.1431708,104.922231 C66.328832,108.396191 70.0612181,111.255857 73.1828501,109.417744 L92.9305657,97.7713628 C94.2199355,97.0222242 95.7807515,97.0222242 97.0701212,97.7713628 L116.818515,109.417744 C119.940147,111.255857 123.672534,108.464295 122.857516,104.922231 L117.564314,82.8573756 C117.225006,81.3590984 117.700037,79.8608212 118.853684,78.8392686 L136.701276,63.1073583 C139.280015,60.7237355 137.787061,56.2970075 134.258259,55.95649 Z" id="Shape" fill="#C8C9F0" fill-rule="nonzero"></path>
            <path d="M134.258259,51.95649 L110.575251,49.7090742 C109.082297,49.5728672 107.792249,48.6194181 107.182173,47.1892444 L98.6994774,26.5538815 C97.3422461,23.1487062 92.5233963,23.1487062 91.166165,26.5538815 L82.7513309,47.1892444 C82.2084384,48.6194181 80.8512071,49.5728672 79.3582526,49.7090742 L55.6745662,51.95649 C52.1457648,52.2970075 50.7206719,56.7237355 53.367273,59.1073583 L71.2148647,74.8392686 C72.3685113,75.8608212 72.8435423,77.3590984 72.5042345,78.8573756 L67.1431708,100.922231 C66.328832,104.396191 70.0612181,107.255857 73.1828501,105.417744 L92.9305657,93.7713628 C94.2199355,93.0222242 95.7807515,93.0222242 97.0701212,93.7713628 L116.818515,105.417744 C119.940147,107.255857 123.672534,104.464295 122.857516,100.922231 L117.564314,78.8573756 C117.225006,77.3590984 117.700037,75.8608212 118.853684,74.8392686 L136.701276,59.1073583 C139.280015,56.7237355 137.787061,52.2970075 134.258259,51.95649 Z" id="Shape-Copy-2" fill="#FFFFFF" fill-rule="nonzero"></path>
            <path d="M57.0973051,85.1518154 C57.5973447,84.3493157 57.9290542,83.3343199 57.9934157,82.3300082 C58.0342605,81.6853968 57.8844962,81.0087329 57.5602131,80.3724314 C57.0515094,79.3728682 56.1776778,78.8113559 55.3335516,78.2688377 C54.7035512,77.8640264 54.108207,77.4817707 53.6873816,76.9356911 L53.6118805,76.8383464 C53.3630984,76.5178214 53.0821356,76.1545597 53.0375776,75.8494674 C52.9930196,75.5408137 52.7009173,75.3211947 52.381585,75.3390017 C52.0573019,75.36037 51.8060444,75.6179771 51.8060444,75.9301922 L51.8060444,86.5075174 C50.9489614,86.1955042 49.3851727,86.4480593 48.8339154,86.6974216 C47.7935479,87.1680339 47,88.0153986 47,89.0962604 C47,90.1771222 47.6446282,91.243963 49.3502089,91.243963 C51.0557895,91.243963 53.0437662,89.7044576 53.0437662,88.3950536 L53.0437662,81.476462 C53.9732953,81.8171682 55.4944554,82.68496 55.9128054,84.7113903 C55.8348289,84.8217933 55.7605656,84.9405063 55.6739251,85.0354767 C55.447422,85.2812125 55.4721764,85.6563455 55.7296225,85.8724031 C55.9845932,86.0908349 56.3757133,86.0647181 56.6022164,85.8189822 C56.7680711,85.6385385 56.91536,85.4272295 57.0564603,85.2064233 C57.071313,85.1898035 57.0849666,85.1719966 57.0973051,85.1518154 Z" id="Shape-Copy-8" fill="#615F97" fill-rule="nonzero"></path>
        </g>
    </g>
</svg>