<svg width="180px" height="120px" viewBox="0 0 180 120" version="1.1" xmlns="http://www.w3.org/2000/svg" xmlns:xlink="http://www.w3.org/1999/xlink">
    <defs>
        <linearGradient x1="-5.30713338%" y1="0%" x2="100%" y2="91.5906263%" id="linearGradient-1">
            <stop stop-color="#C0D1FF" offset="0%"></stop>
            <stop stop-color="#CBC7F9" offset="100%"></stop>
        </linearGradient>
    </defs>
    <g id="Page-1" stroke="none" stroke-width="1" fill="none" fill-rule="evenodd">
        <g id="First-Screen" transform="translate(-537.000000, -72.000000)">
            <g id="My-Record-1" transform="translate(537.000000, 72.000000)">
                <rect id="Rectangle-Copy-3" fill="url(#linearGradient-1)" opacity="0.5" x="0" y="0" width="180" height="120" rx="4"></rect>
                <rect id="Rectangle-Copy-17" fill="#C6C7ED" opacity="0.5" x="30" y="23" width="120" height="1"></rect>
                <rect id="Rectangle-Copy-16" fill="#C6C7ED" opacity="0.5" x="30" y="35" width="120" height="1"></rect>
                <rect id="Rectangle-Copy-15" fill="#C6C7ED" opacity="0.5" x="30" y="47" width="120" height="1"></rect>
                <rect id="Rectangle-Copy-14" fill="#C6C7ED" opacity="0.5" x="30" y="59" width="120" height="1"></rect>
                <rect id="Rectangle-Copy-13" fill="#C6C7ED" opacity="0.5" x="30" y="71" width="120" height="1"></rect>
                <rect id="Rectangle-Copy-12" fill="#C6C7ED" opacity="0.5" x="30" y="83" width="120" height="1"></rect>
                <rect id="Rectangle-Copy-11" fill="#C6C7ED" opacity="0.5" x="30" y="95" width="120" height="1"></rect>
                <path d="M141.330107,68.0685951 L133.717259,70.4506237 C132.794946,70.7197319 132.047366,71.703659 132.047366,72.6469395 L132.047366,80.746117 C132.047366,80.746117 132.047366,80.8568438 132.047366,80.8596471 C132.047366,80.8596471 131.49576,80.4791112 130.267152,80.6571151 C128.462955,80.9192153 127,82.3355377 127,83.8212395 C127,85.3069414 128.462955,86.2172842 130.267152,85.9551839 C132.072719,85.6944853 133.395889,84.3216127 133.395889,82.83521 C133.395889,82.83521 133.395889,76.4817322 133.395889,75.8229776 C133.395889,75.164223 134.170193,74.8817995 134.170193,74.8817995 L140.901156,72.7240278 C140.901156,72.7240278 141.645996,72.4682348 141.645996,73.1732424 C141.645996,73.87825 141.645996,78.8013894 141.645996,78.8013894 C141.645996,78.8055942 140.960086,78.4019318 139.731478,78.5547068 C137.927281,78.7782629 136.464325,80.1651515 136.464325,81.6501526 C136.464325,83.1365552 137.927281,84.0770325 139.731478,83.8527756 C141.537045,83.6292196 143,82.2430317 143,80.7566291 L143,69.2893935 C143,68.346113 142.251734,67.7994868 141.330107,68.0685951 Z" id="Shape-Copy" fill="#CACDEF" fill-rule="nonzero"></path>
                <path d="M63.0375776,23.065478 C62.9930196,22.7568243 62.7009173,22.5372053 62.381585,22.5550123 C62.0573019,22.5763806 61.8060444,22.8339877 61.8060444,23.1462028 L61.8060444,33.723528 C60.9489614,33.4115148 59.3851727,33.6640699 58.8339154,33.9134322 C57.7935479,34.3840445 57,35.2314092 57,36.312271 C57,37.3931328 57.6446282,38.4599735 59.3502089,38.4599735 C61.0557895,38.4599735 63.0437662,36.9204682 63.0437662,35.6110642 L63.0437662,28.6924726 C63.0375776,26.9996934 63.0821356,23.3705703 63.0375776,23.065478 Z" id="Shape-Copy-7" fill="#CACDEF" fill-rule="nonzero"></path>
                <path d="M129.258259,50.95649 L105.575251,48.7090742 C104.082297,48.5728672 102.792249,47.6194181 102.182173,46.1892444 L93.6994774,25.5538815 C92.3422461,22.1487062 87.5233963,22.1487062 86.166165,25.5538815 L77.7513309,46.1892444 C77.2084384,47.6194181 75.8512071,48.5728672 74.3582526,48.7090742 L50.6745662,50.95649 C47.1457648,51.2970075 45.7206719,55.7237355 48.367273,58.1073583 L66.2148647,73.8392686 C67.3685113,74.8608212 67.8435423,76.3590984 67.5042345,77.8573756 L62.1431708,99.9222311 C61.328832,103.396191 65.0612181,106.255857 68.1828501,104.417744 L87.9305657,92.7713628 C89.2199355,92.0222242 90.7807515,92.0222242 92.0701212,92.7713628 L111.818515,104.417744 C114.940147,106.255857 118.672534,103.464295 117.857516,99.9222311 L112.564314,77.8573756 C112.225006,76.3590984 112.700037,74.8608212 113.853684,73.8392686 L131.701276,58.1073583 C134.280015,55.7237355 132.787061,51.2970075 129.258259,50.95649 Z" id="Shape" fill="#CACDEF" fill-rule="nonzero"></path>
                <path d="M129.258259,45.95649 L105.575251,43.7090742 C104.082297,43.5728672 102.792249,42.6194181 102.182173,41.1892444 L93.6994774,20.5538815 C92.3422461,17.1487062 87.5233963,17.1487062 86.166165,20.5538815 L77.7513309,41.1892444 C77.2084384,42.6194181 75.8512071,43.5728672 74.3582526,43.7090742 L50.6745662,45.95649 C47.1457648,46.2970075 45.7206719,50.7237355 48.367273,53.1073583 L66.2148647,68.8392686 C67.3685113,69.8608212 67.8435423,71.3590984 67.5042345,72.8573756 L62.1431708,94.9222311 C61.328832,98.396191 65.0612181,101.255857 68.1828501,99.4177437 L87.9305657,87.7713628 C89.2199355,87.0222242 90.7807515,87.0222242 92.0701212,87.7713628 L111.818515,99.4177437 C114.940147,101.255857 118.672534,98.4642946 117.857516,94.9222311 L112.564314,72.8573756 C112.225006,71.3590984 112.700037,69.8608212 113.853684,68.8392686 L131.701276,53.1073583 C134.280015,50.7237355 132.787061,46.2970075 129.258259,45.95649 Z" id="Shape-Copy-2" fill="#FFFFFF" fill-rule="nonzero"></path>
                <path d="M52.0973051,80.1518154 C52.5973447,79.3493157 52.9290542,78.3343199 52.9934157,77.3300082 C53.0342605,76.6853968 52.8844962,76.0087329 52.5602131,75.3724314 C52.0515094,74.3728682 51.1776778,73.8113559 50.3335516,73.2688377 C49.7035512,72.8640264 49.108207,72.4817707 48.6873816,71.9356911 L48.6118805,71.8383464 C48.3630984,71.5178214 48.0821356,71.1545597 48.0375776,70.8494674 C47.9930196,70.5408137 47.7009173,70.3211947 47.381585,70.3390017 C47.0573019,70.36037 46.8060444,70.6179771 46.8060444,70.9301922 L46.8060444,81.5075174 C45.9489614,81.1955042 44.3851727,81.4480593 43.8339154,81.6974216 C42.7935479,82.1680339 42,83.0153986 42,84.0962604 C42,85.1771222 42.6446282,86.243963 44.3502089,86.243963 C46.0557895,86.243963 48.0437662,84.7044576 48.0437662,83.3950536 L48.0437662,76.476462 C48.9732953,76.8171682 50.4944554,77.68496 50.9128054,79.7113903 C50.8348289,79.8217933 50.7605656,79.9405063 50.6739251,80.0354767 C50.447422,80.2812125 50.4721764,80.6563455 50.7296225,80.8724031 C50.9845932,81.0908349 51.3757133,81.0647181 51.6022164,80.8189822 C51.7680711,80.6385385 51.91536,80.4272295 52.0564603,80.2064233 C52.071313,80.1898035 52.0849666,80.1719966 52.0973051,80.1518154 Z" id="Shape-Copy-8" fill="#CACDEF" fill-rule="nonzero"></path>
            </g>
        </g>
    </g>
</svg>