<svg width="681px" height="555px" viewBox="0 0 681 555" version="1.1" xmlns="http://www.w3.org/2000/svg" xmlns:xlink="http://www.w3.org/1999/xlink">
    <defs>
        <rect id="path-1" x="0" y="0" width="513" height="387" rx="4"></rect>
        <filter x="-24.9%" y="-32.9%" width="149.7%" height="165.9%" filterUnits="objectBoundingBox" id="filter-2">
            <feOffset dx="0" dy="0" in="SourceAlpha" result="shadowOffsetOuter1"></feOffset>
            <feGaussianBlur stdDeviation="42.5" in="shadowOffsetOuter1" result="shadowBlurOuter1"></feGaussianBlur>
            <feColorMatrix values="0 0 0 0 0.533333333   0 0 0 0 0.596078431   0 0 0 0 0.819607843  0 0 0 0.373867754 0" type="matrix" in="shadowBlurOuter1"></feColorMatrix>
        </filter>
        <linearGradient x1="-55.4893092%" y1="213.302951%" x2="100%" y2="0%" id="linearGradient-3">
            <stop stop-color="#615F97" offset="0%"></stop>
            <stop stop-color="#C3CEFD" offset="100%"></stop>
        </linearGradient>
        <linearGradient x1="39.3216945%" y1="-101.394251%" x2="41.2706928%" y2="229.968164%" id="linearGradient-4">
            <stop stop-color="#C0D1FF" offset="0%"></stop>
            <stop stop-color="#CBC7F9" offset="100%"></stop>
        </linearGradient>
    </defs>
    <g id="Page-1" stroke="none" stroke-width="1" fill="none" fill-rule="evenodd">
        <g id="Result-" transform="translate(84.000000, 84.000000)">
            <g id="Rectangle-12">
                <use fill="black" fill-opacity="1" filter="url(#filter-2)" xlink:href="#path-1"></use>
                <use fill="#FFFFFF" fill-rule="evenodd" xlink:href="#path-1"></use>
            </g>
            <path d="M265.173336,26.1367905 L259.941044,25.6434553 C259.611205,25.6135562 259.326194,25.4042625 259.19141,25.0903219 L257.317326,20.5606081 C257.017473,19.8131306 255.952843,19.8131306 255.65299,20.5606081 L253.793899,25.0903219 C253.673957,25.4042625 253.374104,25.6135562 253.044265,25.6434553 L247.811823,26.1367905 C247.032204,26.2115382 246.717358,27.183259 247.302072,27.7064933 L251.245145,31.1598395 C251.50002,31.3840827 251.604969,31.7129728 251.530005,32.0418629 L250.345584,36.8853678 C250.165672,37.6479444 250.990269,38.275676 251.679932,37.8721876 L256.042799,35.315665 C256.32766,35.1512199 256.672492,35.1512199 256.957352,35.315665 L261.32037,37.8721876 C262.010033,38.275676 262.83463,37.6628939 262.654568,36.8853678 L261.485139,32.0418629 C261.410176,31.7129728 261.515124,31.3840827 261.77,31.1598395 L265.713073,27.7064933 C266.282794,27.183259 265.952955,26.2115382 265.173336,26.1367905 Z" id="Shape-Copy-2" fill="url(#linearGradient-3)" fill-rule="nonzero"></path>
            <g id="003-music" transform="translate(424.000000, 167.000000)" fill="url(#linearGradient-4)" fill-rule="nonzero">
                <path d="M21.4610638,20.1711309 C22.3135435,18.7670067 22.8790499,16.9910804 22.988775,15.2338481 C23.0584082,14.1059792 22.8030863,12.9220283 22.2502406,11.8086991 C21.3829901,10.0597752 19.8932607,9.07730373 18.4541736,8.12806595 C17.3801336,7.41977255 16.3651763,6.75094418 15.6477428,5.79547507 L15.5190268,5.62515232 C15.0948971,5.0643335 14.6159048,4.42873883 14.5399412,3.8949224 C14.4639777,3.35487464 13.9659945,2.9706099 13.4215891,3.0017665 C12.8687433,3.03915442 12.4403934,3.48988658 12.4403934,4.03616566 L12.4403934,22.5431868 C11.5562622,22.0156017 10.4674514,21.691573 9.27524585,21.691573 C6.36753034,21.691573 4,23.5547378 4,25.8457865 C4,28.1368352 6.36753034,30 9.27524585,30 C12.1829614,30 14.5504917,28.1368352 14.5504917,25.8457865 L14.5504917,13.7404084 C16.1351756,14.336538 18.7284864,15.8549031 19.4416997,19.4005243 C19.3087635,19.5936952 19.1821576,19.8014059 19.0344507,19.9675744 C18.6483027,20.3975355 18.6905047,21.0539012 19.1294051,21.4319347 C19.5640854,21.8141223 20.2308764,21.768426 20.6170244,21.3384649 C20.8997776,21.0227446 21.1508793,20.6530196 21.3914305,20.2666778 C21.4167517,20.2375983 21.4400287,20.2064417 21.4610638,20.1711309 Z" id="Shape" transform="translate(13.500000, 16.500000) rotate(17.000000) translate(-13.500000, -16.500000) "></path>
                <path d="M45.8940873,88.530809 C47.0606385,86.6066388 47.8344893,84.1729621 47.9846394,81.764903 C48.079927,80.2193048 47.7305392,78.5968536 46.9740134,77.0711803 C45.7872497,74.6745068 43.7486725,73.328157 41.7793955,72.0273496 C40.3096565,71.0567253 38.9207675,70.1401828 37.9390165,68.8308362 L37.7628788,68.597431 C37.1824907,67.8289015 36.5270276,66.9579014 36.4230775,66.2263751 C36.3191273,65.4863097 35.6376766,64.9597247 34.8927009,65.0024208 C34.1361751,65.0536561 33.550012,65.6713261 33.550012,66.4199307 L33.550012,91.7814041 C32.3401482,91.0584171 30.8501967,90.6143778 29.2187575,90.6143778 C25.2397784,90.6143778 22,93.1676036 22,96.3071889 C22,99.4467742 25.2397784,102 29.2187575,102 C33.1977366,102 36.437515,99.4467742 36.437515,96.3071889 L36.437515,79.7183374 C38.6060297,80.5352558 42.1547709,82.6159783 43.1307469,87.4747925 C42.9488342,87.7395082 42.775584,88.0241488 42.5734588,88.2518612 C42.0450458,88.8410672 42.1027958,89.7405313 42.7033965,90.2585771 C43.2982221,90.7823158 44.210673,90.7196948 44.7390861,90.1304889 C45.1260115,89.6978352 45.4696243,89.1911751 45.7987997,88.6617436 C45.8334497,88.6218939 45.8653025,88.5791979 45.8940873,88.530809 Z" id="Shape-Copy-6" opacity="0.5" transform="translate(35.000000, 83.500000) rotate(-12.000000) translate(-35.000000, -83.500000) "></path>
            </g>
            <g id="001-music-2" transform="translate(29.000000, 113.000000)" fill="url(#linearGradient-4)" fill-rule="nonzero">
                <path d="M48.4077944,117.18292 L27.4724625,123.534996 C24.9361028,124.252618 22.880257,126.876424 22.880257,129.391839 L22.880257,150.989645 C22.880257,150.989645 22.880257,151.284917 22.880257,151.292392 C22.880257,151.292392 21.3633405,150.27763 17.9846681,150.752307 C13.0231263,151.451241 9,155.2281 9,159.189972 C9,163.151844 13.0231263,165.579424 17.9846681,164.88049 C22.9499786,164.185294 26.5886938,160.524301 26.5886938,156.56056 C26.5886938,156.56056 26.5886938,139.617953 26.5886938,137.861274 C26.5886938,136.104595 28.71803,135.351465 28.71803,135.351465 L47.2281799,129.597407 C47.2281799,129.597407 49.2764882,128.915293 49.2764882,130.795313 C49.2764882,132.675333 49.2764882,145.803705 49.2764882,145.803705 C49.2764882,145.814918 47.3902355,144.738485 44.0115632,145.145885 C39.0500214,145.742034 35.0268951,149.440404 35.0268951,153.400407 C35.0268951,157.364147 39.0500214,159.872087 44.0115632,159.274068 C48.9768737,158.677919 53,154.981418 53,151.017677 L53,120.438383 C53,117.922968 50.9422698,116.465298 48.4077944,117.18292 Z" id="Shape" opacity="0.5"></path>
                <path d="M20.1213704,61.0762167 L11.5569165,63.7229152 C10.5193148,64.0219244 9.67828694,65.1151767 9.67828694,66.1632661 L9.67828694,75.1623522 C9.67828694,75.1623522 9.67828694,75.2853821 9.67828694,75.2884967 C9.67828694,75.2884967 9.05773019,74.8656791 7.67554604,75.0634612 C5.64582441,75.3546837 4,76.9283752 4,78.579155 C4,80.2299349 5.64582441,81.2414268 7.67554604,80.9502044 C9.70680942,80.6605392 11.1953747,79.1351252 11.1953747,77.4835667 C11.1953747,77.4835667 11.1953747,70.4241469 11.1953747,69.6921974 C11.1953747,68.9602478 12.0664668,68.6464439 12.0664668,68.6464439 L19.6388009,66.2489198 C19.6388009,66.2489198 20.4767452,65.9647053 20.4767452,66.7480471 C20.4767452,67.5313888 20.4767452,73.0015437 20.4767452,73.0015437 C20.4767452,73.0062157 19.7050964,72.557702 18.3229122,72.727452 C16.2931906,72.9758476 14.6473662,74.516835 14.6473662,76.1668362 C14.6473662,77.8183947 16.2931906,78.8633695 18.3229122,78.6141952 C20.3541756,78.3657995 22,76.8255908 22,75.1740323 L22,62.4326594 C22,61.38457 21.1582013,60.7772076 20.1213704,61.0762167 Z" id="Shape-Copy-3" transform="translate(13.000000, 71.000000) rotate(24.000000) translate(-13.000000, -71.000000) "></path>
                <path d="M430.439056,2.31270692 L424.679328,4.09265249 C423.981525,4.29374077 423.415921,5.02896983 423.415921,5.73382618 L423.415921,11.7858506 C423.415921,11.7858506 423.415921,11.86859 423.415921,11.8706847 C423.415921,11.8706847 422.998587,11.5863333 422.069047,11.7193448 C420.704027,11.9151964 419.597185,12.9735283 419.597185,14.0837032 C419.597185,15.1938781 420.704027,15.8741221 422.069047,15.6782705 C423.435103,15.4834662 424.436186,14.4576017 424.436186,13.3469031 C424.436186,13.3469031 424.436186,8.5993343 424.436186,8.10708693 C424.436186,7.61483955 425.022009,7.40380158 425.022009,7.40380158 L430.11452,5.7914296 C430.11452,5.7914296 430.678051,5.60029099 430.678051,6.12710041 C430.678051,6.65390984 430.678051,10.3326735 430.678051,10.3326735 C430.678051,10.3358155 430.159105,10.034183 429.229565,10.1483425 C427.864546,10.3153924 426.757703,11.3517303 426.757703,12.4613815 C426.757703,13.5720801 427.864546,14.2748418 429.229565,14.1072682 C430.595621,13.9402183 431.702463,12.9044042 431.702463,11.7937056 L431.702463,3.22493557 C431.702463,2.52007922 431.13634,2.11161864 430.439056,2.31270692 Z" id="Shape-Copy-7" transform="translate(425.649824, 8.986604) rotate(-3.000000) translate(-425.649824, -8.986604) "></path>
                <path d="M27.7713802,2.90574021 L27.7713802,10.5549634 C27.7713802,10.5549634 27.7713802,10.6595388 27.7713802,10.6621862 C27.7713802,10.6621862 27.2197742,10.3027912 25.9911661,10.470906 C24.1869691,10.7184451 22.7240141,12.0560829 22.7240141,13.4592458 C22.7240141,14.8624086 24.1869691,15.7221768 25.9911661,15.4746377 C27.7967335,15.2284223 29.1199027,13.9318204 29.1199027,12.5279957 C29.1199027,12.5279957 29.1199027,6.52748887 29.1199027,5.90533176 C29.1199027,5.28317464 29.4863263,4.15172147 29.4863263,4.15172147 C31.1139466,3.93407683 32.0622595,3.36592337 32.3312649,2.44726108 C29.2913418,2.15899647 27.7713802,2.31182285 27.7713802,2.90574021 Z" id="Shape-Copy-4" transform="translate(27.527639, 8.911467) rotate(-36.000000) translate(-27.527639, -8.911467) "></path>
            </g>
        </g>
    </g>
</svg>