<svg width="17px" height="30px" viewBox="0 0 17 30" version="1.1" xmlns="http://www.w3.org/2000/svg" xmlns:xlink="http://www.w3.org/1999/xlink">
    <!-- Generator: Sketch 49.3 (51167) - http://www.bohemiancoding.com/sketch -->
    <desc>Created with Sketch.</desc>
    <defs></defs>
    <g id="Page-1" stroke="none" stroke-width="1" fill="none" fill-rule="evenodd">
        <g id="Singing-Screen-1" transform="translate(-1264.000000, -85.000000)" fill="#8790D0" fill-rule="nonzero">
            <g id="Toolbar" transform="translate(0.000000, 24.000000)">
                <g id="microphone" transform="translate(1264.000000, 61.000000)">
                    <g id="technology">
                        <path d="M17,15.3 L14.4814608,15.3 C14.4814608,18.6695218 11.8034786,21.4010655 8.49997204,21.4010655 C5.19652145,21.4010655 2.51853923,18.6694648 2.51853923,15.3 L0,15.3 C0,19.6676747 3.16660142,23.2804314 7.2857782,23.8815593 L7.2857782,29.299696 C7.2857782,29.5483501 7.52737543,29.75 7.82545719,29.75 L9.17465466,29.75 C9.47273642,29.75 9.71433365,29.5483501 9.71433365,29.299696 L9.71433365,23.8815593 C13.8333986,23.2804314 17,19.6676747 17,15.3 Z" id="Shape"></path>
                        <path d="M13.6,5.2000065 C13.6,2.32814253 11.3166323,0 8.4999458,0 C5.6833677,0 3.4,2.32814253 3.4,5.2000065 C3.4,7.57667387 3.4,12.8233814 3.4,15.1999935 C3.4,18.0718575 5.6833677,20.4 8.5,20.4 C11.3166323,20.4 13.6,18.0718575 13.6,15.1999935 C13.6,12.8233814 13.6,7.57667387 13.6,5.2000065 Z" id="Shape"></path>
                    </g>
                </g>
            </g>
        </g>
    </g>
</svg>