<?xml version="1.0" encoding="UTF-8"?>
<svg width="25px" height="37px" viewBox="0 0 25 37" version="1.1" xmlns="http://www.w3.org/2000/svg" xmlns:xlink="http://www.w3.org/1999/xlink">
    <!-- Generator: Sketch 49.3 (51167) - http://www.bohemiancoding.com/sketch -->
    <title>technology</title>
    <desc>Created with Sketch.</desc>
    <defs></defs>
    <g id="Page-1" stroke="none" stroke-width="1" fill="none" fill-rule="evenodd">
        <g id="Singing-Screen-1" transform="translate(-1407.000000, -78.000000)">
            <g id="Toolbar" transform="translate(0.000000, 24.000000)">
                <g id="microphone-copy" transform="translate(1408.000000, 55.000000)">
                    <g id="technology">
                        <path d="M20,21.3 L17.5,21.3 C17.5,24.7 14.8,27.4 11.5,27.4 C8.2,27.4 5.5,24.7 5.5,21.3 L3,21.3 C3,25.7 6.2,29.3 10.3,29.9 L10.3,35.3 C10.3,35.5 10.5,35.8 10.8,35.8 L12.1,35.8 C12.4,35.8 12.6,35.6 12.6,35.3 L12.6,29.9 C16.8,29.3 20,25.7 20,21.3 Z" id="Shape" fill="#8790D0" fill-rule="nonzero"></path>
                        <path d="M16.6,11.2 C16.6,8.3 14.3,6 11.5,6 C8.7,6 6.4,8.3 6.4,11.2 C6.4,13.6 6.4,18.8 6.4,21.2 C6.4,24.1 8.7,26.4 11.5,26.4 C14.3,26.4 16.6,24.1 16.6,21.2 C16.6,18.8 16.6,13.6 16.6,11.2 Z" id="Shape_1_" fill="#8790D0" fill-rule="nonzero"></path>
                        <path d="M8.5,4.1 C5.9,5.3 4,7.9 4,11" id="Shape" stroke="#8790D0" stroke-width="2" stroke-linecap="round"></path>
                        <path d="M19,4.09999847 C16.4,5.29999847 14.5,7.89999847 14.5,10.9999985" id="Shape-Copy" stroke="#8790D0" stroke-width="2" stroke-linecap="round" transform="translate(16.750000, 7.549998) scale(-1, 1) translate(-16.750000, -7.549998) "></path>
                        <path d="M8.5,0.7 C4,2 0.8,6.1 0.8,11" id="Shape" stroke="#8790D0" stroke-width="2" stroke-linecap="round"></path>
                        <path d="M22.2,0.7 C17.7,2 14.5,6.1 14.5,11" id="Shape-Copy-2" stroke="#8790D0" stroke-width="2" stroke-linecap="round" transform="translate(18.350000, 5.850000) scale(-1, 1) translate(-18.350000, -5.850000) "></path>
                    </g>
                </g>
            </g>
        </g>
    </g>
</svg>