<?xml version="1.0" encoding="UTF-8"?>
<svg width="70px" height="60px" viewBox="0 0 70 60" version="1.1" xmlns="http://www.w3.org/2000/svg" xmlns:xlink="http://www.w3.org/1999/xlink">
    <!-- Generator: Sketch 49.1 (51147) - http://www.bohemiancoding.com/sketch -->
    <title>To the begining Active 3</title>
    <desc>Created with Sketch.</desc>
    <defs></defs>
    <g id="Page-1" stroke="none" stroke-width="1" fill="none" fill-rule="evenodd">
        <g id="Controls-Play" transform="translate(-174.000000, -150.000000)">
            <g id="Player" transform="translate(32.000000, 150.000000)">
                <g id="To-the-begining-Active-3" transform="translate(142.000000, 0.000000)">
                    <rect id="Bg-player-Copy-4" fill="#615F97" x="0" y="0" width="70" height="60"></rect>
                    <path d="M44.8939891,32.2888544 L32.366125,38.5527864 C31.378168,39.0467649 30.176822,38.6463162 29.6828435,37.6583592 C29.543988,37.3806483 29.4716978,37.0744222 29.4716978,36.763932 L29.4716978,24.236068 C29.4716978,23.1314985 30.3671283,22.236068 31.4716978,22.236068 C31.782188,22.236068 32.0884142,22.3083582 32.366125,22.4472136 L44.8939891,28.7111456 C45.8819461,29.2051241 46.2823948,30.4064702 45.7884163,31.3944272 C45.5948889,31.781482 45.2810439,32.095327 44.8939891,32.2888544 Z" id="Triangle-2-Copy" fill="#FFFFFF" transform="translate(37.735849, 30.500219) scale(-1, 1) translate(-37.735849, -30.500219) "></path>
                    <rect id="Rectangle-9" fill="#FFFFFF" x="26.0555556" y="21" width="2.11111111" height="19" rx="1.05555556"></rect>
                </g>
            </g>
        </g>
    </g>
</svg>