<?xml version="1.0" encoding="UTF-8"?>
<svg width="70px" height="60px" viewBox="0 0 70 60" version="1.1" xmlns="http://www.w3.org/2000/svg" xmlns:xlink="http://www.w3.org/1999/xlink">
    <!-- Generator: Sketch 49.1 (51147) - http://www.bohemiancoding.com/sketch -->
    <title>Go back Active 1</title>
    <desc>Created with Sketch.</desc>
    <defs></defs>
    <g id="Page-1" stroke="none" stroke-width="1" fill="none" fill-rule="evenodd">
        <g id="Controls-Play" transform="translate(-32.000000, -150.000000)">
            <g id="Player" transform="translate(32.000000, 150.000000)">
                <g id="Go-back-Active-1">
                    <path d="M30,0 L70,0 L70,60 L30,60 C13.4314575,60 2.02906125e-15,46.5685425 0,30 L0,30 C-2.02906125e-15,13.4314575 13.4314575,3.04359188e-15 30,0 Z" id="Bg-player-Copy" fill="#615F97"></path>
                    <path d="M35.7857143,28.7084561 L35.7857143,26 C35.7857143,24.8954305 36.6811448,24 37.7857143,24 C38.0962045,24 38.4024306,24.0722902 38.6801415,24.2111456 L47.2080055,28.4750776 C48.1959625,28.9690561 48.5964112,30.1704022 48.1024327,31.1583592 C47.9089053,31.545414 47.5950603,31.859259 47.2080055,32.0527864 L38.6801415,36.3167184 C37.6921845,36.8106969 36.4908384,36.4102482 35.9968599,35.4222912 C35.8580045,35.1445804 35.7857143,34.8383542 35.7857143,34.527864 L35.7857143,31.8188657 C35.6740209,31.9092211 35.552285,31.9877895 35.4222912,32.0527864 L26.8944272,36.3167184 C25.9064702,36.8106969 24.7051241,36.4102482 24.2111456,35.4222912 C24.0722902,35.1445804 24,34.8383542 24,34.527864 L24,26 C24,24.8954305 24.8954305,24 26,24 C26.3104902,24 26.6167163,24.0722902 26.8944272,24.2111456 L35.4222912,28.4750776 C35.5541391,28.5410016 35.6755233,28.6195239 35.7857143,28.7084561 Z" id="Combined-Shape" fill="#FFFFFF" transform="translate(36.157008, 30.264151) scale(-1, 1) translate(-36.157008, -30.264151) "></path>
                </g>
            </g>
        </g>
    </g>
</svg>