<?xml version="1.0" encoding="UTF-8"?>
<svg width="70px" height="60px" viewBox="0 0 70 60" version="1.1" xmlns="http://www.w3.org/2000/svg" xmlns:xlink="http://www.w3.org/1999/xlink">
    <!-- Generator: Sketch 49.1 (51147) - http://www.bohemiancoding.com/sketch -->
    <title>Forward Passive 2</title>
    <desc>Created with Sketch.</desc>
    <defs></defs>
    <g id="Page-1" stroke="none" stroke-width="1" fill="none" fill-rule="evenodd">
        <g id="Controls-Play" transform="translate(-103.000000, -150.000000)">
            <g id="Player" transform="translate(32.000000, 150.000000)">
                <g id="Forward-Passive-2" transform="translate(71.000000, 0.000000)">
                    <rect id="Bg-player-Copy-3" fill="#FFFFFF" x="0" y="0" width="70" height="60"></rect>
                    <path d="M35.7857143,28.9445241 L35.7857143,26.236068 C35.7857143,25.1314985 36.6811448,24.236068 37.7857143,24.236068 C38.0962045,24.236068 38.4024306,24.3083582 38.6801415,24.4472136 L47.2080055,28.7111456 C48.1959625,29.2051241 48.5964112,30.4064702 48.1024327,31.3944272 C47.9089053,31.781482 47.5950603,32.095327 47.2080055,32.2888544 L38.6801415,36.5527864 C37.6921845,37.0467649 36.4908384,36.6463162 35.9968599,35.6583592 C35.8580045,35.3806483 35.7857143,35.0744222 35.7857143,34.763932 L35.7857143,32.0549337 C35.6740209,32.145289 35.552285,32.2238575 35.4222912,32.2888544 L26.8944272,36.5527864 C25.9064702,37.0467649 24.7051241,36.6463162 24.2111456,35.6583592 C24.0722902,35.3806483 24,35.0744222 24,34.763932 L24,26.236068 C24,25.1314985 24.8954305,24.236068 26,24.236068 C26.3104902,24.236068 26.6167163,24.3083582 26.8944272,24.4472136 L35.4222912,28.7111456 C35.5541391,28.7770695 35.6755233,28.8555919 35.7857143,28.9445241 Z" id="Combined-Shape" fill="#615F97"></path>
                </g>
            </g>
        </g>
    </g>
</svg>