
<svg width="22px" height="18px" viewBox="0 0 22 18" version="1.1" xmlns="http://www.w3.org/2000/svg" xmlns:xlink="http://www.w3.org/1999/xlink">
    <!-- Generator: Sketch 50 (54983) - http://www.bohemiancoding.com/sketch -->
    <desc>Created with Sketch.</desc>
    <defs></defs>
    <g id="Page-1" stroke="none" stroke-width="1" fill="none" fill-rule="evenodd">
        <g id="Singing-Screen-Expanded-mode-1" transform="translate(-22.000000, -916.000000)" fill="#615F97" fill-rule="nonzero">
            <g id="Volume" transform="translate(0.000000, 861.000000)">
                <g id="volume" transform="translate(22.000000, 55.000000)">
                    <path d="M8.73531947,1.05882353 C8.5203687,1.05882353 8.33423159,1.13619019 8.17699505,1.29049655 L4.04512493,5.34989801 L0.794266134,5.34989801 C0.579054605,5.34989801 0.392960953,5.42726467 0.23581134,5.58148564 C0.0786182664,5.73587739 0,5.91883332 0,6.13009725 L0,10.8109511 C0,11.0222578 0.0786182664,11.205171 0.23581134,11.35952 C0.393091332,11.5139545 0.579228443,11.5912358 0.794266134,11.5912358 L4.04495109,11.5912358 L8.17682122,15.6507653 C8.33401429,15.8049009 8.5201514,15.8823529 8.73514563,15.8823529 C8.95035716,15.8823529 9.13645081,15.8049436 9.29360043,15.6507653 C9.4507935,15.496459 9.52941176,15.3134176 9.52941176,15.1022391 L9.52941176,1.83915086 C9.52941176,1.62788693 9.4507935,1.4448883 9.29377426,1.29049655 C9.13649427,1.13619019 8.950531,1.05882353 8.73531947,1.05882353 Z" id="Shape"></path>
                    <path d="M14.2702493,10.8990018 C14.6392395,10.3211372 14.8235294,9.69710651 14.8235294,9.02663158 C14.8235294,8.35615665 14.6392395,7.72915946 14.2702493,7.14679879 C13.9012136,6.56453083 13.4134973,6.15441246 12.8057327,5.91611922 C12.7190134,5.87213162 12.6104091,5.84997559 12.4802389,5.84997559 C12.2548234,5.84997559 12.0593175,5.93164699 11.8944961,6.09480439 C11.7299027,6.25800814 11.6470588,6.45875663 11.6470588,6.69691081 C11.6470588,6.88217788 11.6991725,7.03879972 11.8035366,7.1667763 C11.9076271,7.29479924 12.0333746,7.40511589 12.1811439,7.4976799 C12.3284117,7.59029026 12.4760443,7.69180012 12.623768,7.80207042 C12.7714006,7.91238707 12.8971481,8.06896255 13.001193,8.27184321 C13.1049644,8.47486293 13.1573972,8.72627364 13.1573972,9.02630712 C13.1573972,9.32624789 13.1052836,9.57770496 13.001193,9.78072468 C12.8971481,9.98379075 12.7714006,10.1401808 12.623768,10.2507292 C12.4760443,10.3609995 12.3284117,10.4625094 12.1811439,10.5551197 C12.0333746,10.647452 11.9076271,10.7580004 11.8035366,10.8856989 C11.6994916,11.0138609 11.6470588,11.1704364 11.6470588,11.3557034 C11.6470588,11.5941357 11.7298571,11.7946525 11.8944961,11.9578099 C12.0592719,12.1210136 12.2547778,12.2029168 12.4802389,12.2029168 C12.6103635,12.2029168 12.7189678,12.1807144 12.8057327,12.1369122 C13.4134973,11.8894413 13.9013959,11.4768663 14.2702493,10.8990018 Z" id="Shape"></path>
                    <path d="M16.8748239,12.4560501 C17.6248486,11.3999807 18,10.2479711 18,9.00006427 C18,7.75211461 17.6248022,6.60027644 16.8748239,5.54356423 C16.1249382,4.4875376 15.1318739,3.71890277 13.896929,3.23761687 C13.7823857,3.19690981 13.6675642,3.17647059 13.55316,3.17647059 C13.3237952,3.17647059 13.1250247,3.25398538 12.9573121,3.40897213 C12.7898314,3.56391602 12.7058824,3.7473977 12.7058824,3.95946002 C12.7058824,4.27757492 12.8779987,4.51817502 13.2222313,4.68143172 C13.716237,4.91787542 14.0514304,5.09728639 14.2278114,5.21957894 C14.8809077,5.6600721 15.390257,6.21253106 15.7564155,6.8772558 C16.1225277,7.54202338 16.3056302,8.24955479 16.3056302,8.99989288 C16.3056302,9.75027381 16.1225741,10.4577624 15.7564155,11.1224871 C15.3903033,11.7873404 14.8805832,12.3397137 14.2278114,12.7800783 C14.0513841,12.9024994 13.716237,13.0818675 13.2222313,13.3183969 C12.8779987,13.4816107 12.7058824,13.7222108 12.7058824,14.0402829 C12.7058824,14.2523024 12.7898314,14.4360411 12.9573121,14.5907708 C13.1249784,14.7459289 13.3277354,14.8235294 13.5660003,14.8235294 C13.671968,14.8235294 13.7823857,14.8028331 13.896929,14.7623403 C15.1318739,14.2809687 16.1249382,13.512291 16.8748239,12.4560501 Z" id="Shape"></path>
                    <path d="M19.4805274,3.65196315 C18.3499454,2.0275383 16.8451221,0.831144391 14.966572,0.0631804522 C14.8509926,0.0210601507 14.7351326,0 14.6196936,0 C14.3882543,0 14.187686,0.0802945958 14.018784,0.240484753 C13.8494142,0.400763584 13.7647059,0.590836987 13.7647059,0.810217252 C13.7647059,1.11397113 13.9384257,1.36305729 14.2857718,1.55712104 C14.3482155,1.59063993 14.4479383,1.63493276 14.5860629,1.68995517 C14.7240471,1.74457855 14.8240974,1.78887137 14.8866814,1.82265629 C15.2961438,2.03347948 15.6612641,2.24878073 15.9820424,2.46820533 C17.0768888,3.23603626 17.9316895,4.19389625 18.5460233,5.3416523 C19.1603572,6.48931967 19.467337,7.70872457 19.467337,9 C19.467337,10.2914971 19.1603572,11.510636 18.5460233,12.6583477 C17.9318298,13.8061924 17.0768888,14.7641854 15.9820424,15.5317947 C15.6612641,15.7511749 15.2961438,15.9663432 14.8866814,16.1774324 C14.8240974,16.2109513 14.7240471,16.2551111 14.5860629,16.3100005 C14.4479383,16.3646239 14.3482155,16.4089167 14.2857718,16.4429233 C13.9384257,16.636854 13.7647059,16.8859845 13.7647059,17.1897384 C13.7647059,17.409163 13.8494142,17.5991034 14.018784,17.7593822 C14.1876393,17.9197497 14.3882075,18 14.6196936,18 C14.7351326,18 14.8509926,17.9788955 14.966572,17.9365535 C16.8451221,17.1688556 18.3499454,15.9724174 19.4805274,14.3479038 C20.6112497,12.723479 21.1764706,10.9406375 21.1764706,8.99973398 C21.1764706,7.05883048 20.6113901,5.27621065 19.4805274,3.65196315 Z" id="Shape"></path>
                </g>
            </g>
        </g>
    </g>
</svg>
