
<svg width="25px" height="25px" viewBox="0 0 25 25" version="1.1" xmlns="http://www.w3.org/2000/svg" xmlns:xlink="http://www.w3.org/1999/xlink">
    <!-- Generator: Sketch 50 (54983) - http://www.bohemiancoding.com/sketch -->
    <desc>Created with Sketch.</desc>
    <defs></defs>
    <g id="Page-1" stroke="none" stroke-width="1" fill="none" fill-rule="evenodd">
        <g id="Controls--" transform="translate(-603.000000, -241.000000)">
            <g id="Key-signature-Copy" transform="translate(460.000000, 241.000000)">
                <g id="Active-Arrow-up" transform="translate(143.000000, 0.000000)">
                    <path d="M0,0 L15,0 C20.5228475,-1.01453063e-15 25,4.4771525 25,10 L25,25 L0,25 L0,0 Z" id="Rectangle-8-Copy-10" fill="#615F97"></path>
                    <path d="M13.3210696,9.06588433 C13.062035,8.80684979 12.6419718,8.80684979 12.3828931,9.06588433 C12.1238143,9.32491887 12.1238143,9.74498206 12.3828931,10.0040608 L14.5674162,12.188584 L7.7917889,12.2206684 C7.42541667,12.2206684 7.12839157,12.5176935 7.12839157,12.8840657 C7.12839157,13.250438 7.42541667,13.5474631 7.7917889,13.5474631 L14.5674162,13.5153786 L12.3829373,15.6999018 C12.1238585,15.9589363 12.1238585,16.3789995 12.3829373,16.6380783 C12.5124324,16.7675734 12.6822179,16.8323652 12.8520034,16.8323652 C13.0217889,16.8323652 13.1915744,16.7675734 13.3210696,16.6380341 L16.6380562,13.3210474 C16.8971349,13.0620129 16.8971349,12.6419497 16.6380562,12.3828709 L13.3210696,9.06588433 Z" id="XMLID_18_" fill="#FFFFFF" fill-rule="nonzero" transform="translate(11.980378, 12.851987) rotate(-90.000000) translate(-11.980378, -12.851987) "></path>
                </g>
            </g>
        </g>
    </g>
</svg>
