<?xml version="1.0" encoding="UTF-8" standalone="no"?>
<svg
   xmlns:dc="http://purl.org/dc/elements/1.1/"
   xmlns:cc="http://creativecommons.org/ns#"
   xmlns:rdf="http://www.w3.org/1999/02/22-rdf-syntax-ns#"
   xmlns:svg="http://www.w3.org/2000/svg"
   xmlns="http://www.w3.org/2000/svg"
   xmlns:sodipodi="http://sodipodi.sourceforge.net/DTD/sodipodi-0.dtd"
   xmlns:inkscape="http://www.inkscape.org/namespaces/inkscape"
   width="70"
   height="70"
   version="1.1"
   id="svg47"
   sodipodi:docname="all_projects_selected.svg"
   inkscape:version="0.92.2 2405546, 2018-03-11">
  <metadata
     id="metadata51">
    <rdf:RDF>
      <cc:Work
         rdf:about="">
        <dc:format>image/svg+xml</dc:format>
        <dc:type
           rdf:resource="http://purl.org/dc/dcmitype/StillImage" />
        <dc:title></dc:title>
      </cc:Work>
    </rdf:RDF>
  </metadata>
  <sodipodi:namedview
     pagecolor="#ffffff"
     bordercolor="#666666"
     borderopacity="1"
     objecttolerance="10"
     gridtolerance="10"
     guidetolerance="10"
     inkscape:pageopacity="0"
     inkscape:pageshadow="2"
     inkscape:window-width="640"
     inkscape:window-height="480"
     id="namedview49"
     showgrid="false"
     fit-margin-top="5"
     fit-margin-bottom="5"
     fit-margin-left="5"
     fit-margin-right="5"
     inkscape:zoom="3.9333333"
     inkscape:cx="35"
     inkscape:cy="35"
     inkscape:window-x="0"
     inkscape:window-y="0"
     inkscape:window-maximized="0"
     inkscape:current-layer="svg47" />
  <defs
     id="defs5">
    <clipPath
       id="clip_0">
      <rect
         x="-40"
         y="-92"
         width="1920"
         height="1080"
         id="rect2"
         style="clip-rule:evenodd" />
    </clipPath>
  </defs>
  <g
     clip-path="url(#clip_0)"
     id="g9"
     transform="translate(5,5)">
    <path
       d="m 4,0 h 52 q 0.205,0 0.4069,0.0186425 0.2018,0.0186425 0.3989,0.0557754 0.197,0.0371331 0.3876,0.0924531 0.1906,0.055321 0.3733,0.128378 0.1826,0.073057 0.3558,0.163254 0.1732,0.090197 0.3355,0.1968 0.1623,0.106602 0.3124,0.22874 0.1501,0.122137 0.2867,0.258817 0.1367,0.13667 0.2589,0.28678 0.1221,0.1501 0.2287,0.3124 0.1066,0.1623 0.1968,0.33548 0.0902,0.17318 0.1633,0.35582 0.073,0.18264 0.1283,0.37326 0.0554,0.19061 0.0925,0.38765 0.0371,0.19704 0.0558,0.39889 Q 60,3.79499 60,4 v 52 q 0,0.205 -0.0186,0.4069 -0.0187,0.2018 -0.0558,0.3989 -0.0371,0.197 -0.0925,0.3876 -0.0553,0.1906 -0.1283,0.3733 -0.0731,0.1826 -0.1633,0.3558 -0.0902,0.1732 -0.1968,0.3355 -0.1066,0.1623 -0.2287,0.3124 -0.1222,0.1501 -0.2589,0.2867 -0.1366,0.1367 -0.2867,0.2589 -0.1501,0.1221 -0.3124,0.2287 -0.1623,0.1066 -0.3355,0.1968 -0.1732,0.0902 -0.3558,0.1633 -0.1827,0.073 -0.3733,0.1283 -0.1906,0.0554 -0.3876,0.0925 -0.1971,0.0371 -0.3989,0.0558 Q 56.205,60 56,60 H 4 Q 3.79499,60 3.59314,59.9814 3.39129,59.9627 3.19425,59.9256 2.99721,59.8885 2.8066,59.8331 2.61598,59.7778 2.43334,59.7048 2.2507,59.6317 2.07752,59.5415 1.90434,59.4513 1.74204,59.3447 1.57974,59.2381 1.42964,59.116 1.27953,58.9938 1.14286,58.8571 1.00618,58.7205 0.884043,58.5704 0.761905,58.4203 0.655303,58.258 0.5487,58.0957 0.458503,57.9225 0.368306,57.7493 0.295249,57.5667 0.222192,57.384 0.166871,57.1934 0.111551,57.0028 0.0744179,56.8058 0.037285,56.6087 0.0186425,56.4069 0,56.205 0,56 V 4 Q 0,3.79499 0.0186425,3.59314 0.037285,3.39129 0.0744179,3.19425 0.111551,2.99721 0.166871,2.8066 0.222192,2.61598 0.295249,2.43334 0.368306,2.2507 0.458503,2.07752 0.5487,1.90434 0.655303,1.74204 0.761905,1.57974 0.884043,1.42964 1.00618,1.27953 1.14286,1.14286 1.27953,1.00618 1.42964,0.884043 1.57974,0.761905 1.74204,0.655303 1.90434,0.5487 2.07752,0.458503 2.2507,0.368306 2.43334,0.295249 2.61598,0.222192 2.8066,0.166871 2.99721,0.111551 3.19425,0.0744179 3.39129,0.037285 3.59314,0.0186425 3.79499,0 4,0 Z"
       id="path7"
       inkscape:connector-curvature="0"
       style="fill:#615f97;stroke:none" />
  </g>
  <defs
     id="defs14">
    <clipPath
       id="clip_1">
      <rect
         x="-40"
         y="-92"
         width="1920"
         height="1080"
         id="rect11"
         style="clip-rule:evenodd" />
    </clipPath>
  </defs>
  <g
     clip-path="url(#clip_1)"
     id="g18"
     transform="translate(5,5)">
    <path
       transform="translate(11.0176,12.3555)"
       d="m 25.6991,2.26874 c 3.0257,-3.024896 7.9484,-3.025075 10.9737,0 1.4657,1.46573 2.273,3.4145 2.2729,5.48704 0,2.07263 -0.8072,4.02102 -2.2728,5.48632 -1.4812,1.4818 -3.4346,2.278 -5.4625,2.278 -0.4617,0 -0.9271,-0.0416 -1.3918,-0.1255 L 18.888,26.3252 c -0.8684,0.8678 -2.009,1.3019 -3.1493,1.3019 -0.5442,0 -1.0881,-0.0999 -1.6026,-0.2976 -0.9817,0.8003 -1.8641,0.9811 -2.5927,1.1299 -0.7628,0.156 -1.3655,0.279 -2.15583,1.0695 -0.79032,0.7902 -0.9133,1.3926 -1.06905,2.1552 -0.17241,0.8443 -0.3871,1.8951 -1.56014,3.0681 -1.17241,1.1723 -2.22301,1.387 -3.06726,1.5594 C 2.9283,36.4674 2.32561,36.5904 1.5352,37.3812 1.35956,37.5569 1.12937,37.6447 0.899192,37.6447 0.669098,37.6447 0.439094,37.557 0.263457,37.3814 -0.0877293,37.0304 -0.0878188,36.461 0.263188,36.1099 1.43596,34.9366 2.48683,34.722 3.33125,34.5495 4.09399,34.3938 4.6965,34.2707 5.48664,33.4805 6.27759,32.6897 6.40066,32.087 6.5565,31.3242 c 0.17241,-0.844 0.38692,-1.8945 1.55933,-3.0669 1.1725,-1.1724 2.22317,-1.3872 3.06747,-1.5597 0.4835,-0.0988 0.9029,-0.1851 1.3463,-0.4359 -0.8022,-0.8338 -1.244,-1.9258 -1.244,-3.0863 0,-1.1894 0.4633,-2.3077 1.3046,-3.149 l 7.4924,-7.4914 c 0.0014,-0.0015 0.0027,-0.0032 0.0041,-0.0048 0.004,-0.0042 0.0083,-0.0077 0.0124,-0.0117 l 0.0028,-0.0029 3.4374,-3.43828 c -0.4331,-2.491 0.3553,-5.00393 2.1598,-6.80858 z m 9.7017,9.70216 4e-4,-3e-4 c 1.1261,-1.1256 1.7462,-2.62244 1.7461,-4.21473 0,-1.59238 -0.6203,-3.08947 -1.7464,-4.21548 -1.1618,-1.16185 -2.6884,-1.74286 -4.2148,-1.74286 -1.2428,0 -2.4854,0.38504 -3.5316,1.15513 l 5.1719,5.17186 c 0.3511,0.35119 0.3511,0.92055 0,1.27165 -0.1757,0.17555 -0.4057,0.26332 -0.6358,0.26332 -0.2301,0 -0.4602,-0.08768 -0.6359,-0.26332 L 26.3824,4.22386 c -1.04,1.40662 -1.4105,3.19372 -0.9907,4.93586 0.2561,1.06218 0.802,2.03408 1.579,2.81098 0.7674,0.7674 1.7265,1.3105 2.7737,1.5705 2.0505,0.5089 4.1651,-0.0782 5.6564,-1.5703 z m -9.6368,4.9353 -3.7548,-3.7547 2.1352,-2.1356 c 0.3812,0.823 0.9057,1.5775 1.5548,2.2266 0.6392,0.6392 1.3814,1.1581 2.1904,1.5382 z m -11.9022,8.1474 c 1.0348,1.035 2.7193,1.0349 3.7549,-10e-5 l 6.8757,-6.8757 -3.7547,-3.7548 -6.8759,6.875 c -0.5016,0.5016 -0.7779,1.1684 -0.7779,1.8774 0,0.7096 0.2763,1.3766 0.7779,1.8782 z"
       id="path16"
       inkscape:connector-curvature="0"
       style="fill:#ffffff;fill-rule:evenodd;stroke:none" />
  </g>
  <defs
     id="defs23">
    <clipPath
       id="clip_2">
      <rect
         x="-40"
         y="-92"
         width="1920"
         height="1080"
         id="rect20"
         style="clip-rule:evenodd" />
    </clipPath>
  </defs>
  <g
     clip-path="url(#clip_2)"
     id="g27"
     transform="translate(5,5)">
    <path
       transform="translate(44.2363,22.1035)"
       d="m 0.86856,0 c -1.157095,0 -1.159065,1.79829 0,1.79829 C 2.02566,1.79838 2.02754,0 0.86856,0 Z"
       id="path25"
       inkscape:connector-curvature="0"
       style="fill:#ffffff;stroke:none" />
  </g>
  <defs
     id="defs32">
    <clipPath
       id="clip_3">
      <rect
         x="-40"
         y="-92"
         width="1920"
         height="1080"
         id="rect29"
         style="clip-rule:evenodd" />
    </clipPath>
  </defs>
  <g
     clip-path="url(#clip_3)"
     id="g36"
     transform="translate(5,5)">
    <path
       transform="translate(42,39)"
       d="M 7.35492,7.2328 C 7.714,6.64135 7.9522,5.8933 7.99842,5.15312 8.02775,4.67804 7.92021,4.17934 7.68734,3.71039 7.32203,2.97371 6.69453,2.55987 6.08836,2.16004 5.63596,1.86169 5.20844,1.57997 4.90624,1.17751 L 4.85203,1.10576 C 4.67337,0.869535 4.47161,0.601811 4.43962,0.376958 4.40762,0.14948 4.19786,-0.0123797 3.96855,7.44081e-4 3.73568,0.0164926 3.55525,0.206349 3.55525,0.436452 V 8.23195 C 3.18284,8.00972 2.72421,7.87323 2.22203,7.87323 0.997247,7.87323 0,8.65803 0,9.62306 c 0,0.96504 0.997247,1.74984 2.22203,1.74984 1.22478,0 2.22203,-0.7848 2.22203,-1.74984 v -5.099 C 5.11156,4.77516 6.20391,5.41472 6.50433,6.9082 6.44833,6.98957 6.395,7.07706 6.33279,7.14705 6.17013,7.32816 6.18791,7.60464 6.37278,7.76387 6.55588,7.92485 6.83674,7.90561 6.9994,7.7245 7.1185,7.59151 7.22427,7.43578 7.32559,7.27304 7.33626,7.26079 7.34606,7.24767 7.35492,7.2328 Z"
       id="path34"
       inkscape:connector-curvature="0"
       style="fill:#ffffff;stroke:none" />
  </g>
  <defs
     id="defs41">
    <clipPath
       id="clip_4">
      <rect
         x="-40"
         y="-92"
         width="1920"
         height="1080"
         id="rect38"
         style="clip-rule:evenodd" />
    </clipPath>
  </defs>
  <g
     clip-path="url(#clip_4)"
     id="g45"
     transform="translate(5,5)">
    <path
       transform="rotate(-4.0000017,196.34214,-148.25157)"
       d="M 9.78625,0.0462663 4.58732,1.65291 C 3.95746,1.83442 3.44692,2.49806 3.44692,3.13429 v 5.46276 c 0,0 0,0.07469 0,0.07658 0,0 -0.3767,-0.25667 -1.21573,-0.13661 C 0.999074,8.71381 0,9.66909 0,10.6712 c 0,1.0021 0.999074,1.6161 2.23119,1.4393 1.23305,-0.1759 2.13666,-1.1018 2.13666,-2.1044 0,0 0,-4.28531 0,-4.72963 0,-0.44432 0.52878,-0.63481 0.52878,-0.63481 L 9.49331,3.18628 c 0,0 0.50869,-0.17253 0.50869,0.30299 0,0.47552 0,3.7961 0,3.7961 C 10.002,7.2882 9.53355,7.01594 8.69452,7.11898 7.4624,7.26977 6.46333,8.2052 6.46333,9.20681 c 0,1.00259 0.99907,1.63689 2.23119,1.48559 C 9.92757,10.5417 10.9266,9.6067 10.9266,8.60414 V 0.869675 c 0,-0.636227 -0.511,-1.004918 -1.14035,-0.8234087 z"
       id="path43"
       inkscape:connector-curvature="0"
       style="fill:#ffffff;stroke:none" />
  </g>
</svg>
