<?xml version="1.0" encoding="UTF-8" standalone="no"?>
<svg
   xmlns:dc="http://purl.org/dc/elements/1.1/"
   xmlns:cc="http://creativecommons.org/ns#"
   xmlns:rdf="http://www.w3.org/1999/02/22-rdf-syntax-ns#"
   xmlns:svg="http://www.w3.org/2000/svg"
   xmlns="http://www.w3.org/2000/svg"
   xmlns:sodipodi="http://sodipodi.sourceforge.net/DTD/sodipodi-0.dtd"
   xmlns:inkscape="http://www.inkscape.org/namespaces/inkscape"
   width="70"
   height="70"
   version="1.1"
   id="svg47"
   sodipodi:docname="new_project_selected.svg"
   inkscape:version="0.92.2 2405546, 2018-03-11">
  <metadata
     id="metadata51">
    <rdf:RDF>
      <cc:Work
         rdf:about="">
        <dc:format>image/svg+xml</dc:format>
        <dc:type
           rdf:resource="http://purl.org/dc/dcmitype/StillImage" />
        <dc:title></dc:title>
      </cc:Work>
    </rdf:RDF>
  </metadata>
  <sodipodi:namedview
     pagecolor="#ffffff"
     bordercolor="#666666"
     borderopacity="1"
     objecttolerance="10"
     gridtolerance="10"
     guidetolerance="10"
     inkscape:pageopacity="0"
     inkscape:pageshadow="2"
     inkscape:window-width="1600"
     inkscape:window-height="836"
     id="namedview49"
     showgrid="false"
     fit-margin-top="5"
     fit-margin-bottom="5"
     fit-margin-left="5"
     fit-margin-right="5"
     inkscape:zoom="3.9333333"
     inkscape:cx="35"
     inkscape:cy="35"
     inkscape:window-x="0"
     inkscape:window-y="0"
     inkscape:window-maximized="1"
     inkscape:current-layer="svg47" />
  <defs
     id="defs5">
    <clipPath
       id="clip_0">
      <rect
         x="-40"
         y="-192"
         width="1920"
         height="1080"
         id="rect2"
         style="clip-rule:evenodd" />
    </clipPath>
  </defs>
  <g
     clip-path="url(#clip_0)"
     id="g9"
     transform="translate(5,5)">
    <path
       d="m 4,0 h 52 q 0.205,0 0.4069,0.0186425 0.2018,0.0186425 0.3989,0.0557754 0.197,0.0371331 0.3876,0.0924531 0.1906,0.055321 0.3733,0.128378 0.1826,0.073057 0.3558,0.163254 0.1732,0.090197 0.3355,0.1968 0.1623,0.106602 0.3124,0.22874 0.1501,0.122137 0.2867,0.258817 0.1367,0.13667 0.2589,0.28678 0.1221,0.1501 0.2287,0.3124 0.1066,0.1623 0.1968,0.33548 0.0902,0.17318 0.1633,0.35582 0.073,0.18264 0.1283,0.37326 0.0554,0.19061 0.0925,0.38765 0.0371,0.19704 0.0558,0.39889 Q 60,3.79499 60,4 v 52 q 0,0.205 -0.0186,0.4069 -0.0187,0.2018 -0.0558,0.3989 -0.0371,0.197 -0.0925,0.3876 -0.0553,0.1906 -0.1283,0.3733 -0.0731,0.1826 -0.1633,0.3558 -0.0902,0.1732 -0.1968,0.3355 -0.1066,0.1623 -0.2287,0.3124 -0.1222,0.1501 -0.2589,0.2867 -0.1366,0.1367 -0.2867,0.2589 -0.1501,0.1221 -0.3124,0.2287 -0.1623,0.1066 -0.3355,0.1968 -0.1732,0.0902 -0.3558,0.1633 -0.1827,0.073 -0.3733,0.1283 -0.1906,0.0554 -0.3876,0.0925 -0.1971,0.0371 -0.3989,0.0558 Q 56.205,60 56,60 H 4 Q 3.79499,60 3.59314,59.9814 3.39129,59.9627 3.19425,59.9256 2.99721,59.8885 2.8066,59.8331 2.61598,59.7778 2.43334,59.7048 2.2507,59.6317 2.07752,59.5415 1.90434,59.4513 1.74204,59.3447 1.57974,59.2381 1.42964,59.116 1.27953,58.9938 1.14286,58.8571 1.00618,58.7205 0.884043,58.5704 0.761905,58.4203 0.655303,58.258 0.5487,58.0957 0.458503,57.9225 0.368306,57.7493 0.295249,57.5667 0.222192,57.384 0.166871,57.1934 0.111551,57.0028 0.0744179,56.8058 0.037285,56.6087 0.0186425,56.4069 0,56.205 0,56 V 4 Q 0,3.79499 0.0186425,3.59314 0.037285,3.39129 0.0744179,3.19425 0.111551,2.99721 0.166871,2.8066 0.222192,2.61598 0.295249,2.43334 0.368306,2.2507 0.458503,2.07752 0.5487,1.90434 0.655303,1.74204 0.761905,1.57974 0.884043,1.42964 1.00618,1.27953 1.14286,1.14286 1.27953,1.00618 1.42964,0.884043 1.57974,0.761905 1.74204,0.655303 1.90434,0.5487 2.07752,0.458503 2.2507,0.368306 2.43334,0.295249 2.61598,0.222192 2.8066,0.166871 2.99721,0.111551 3.19425,0.0744179 3.39129,0.037285 3.59314,0.0186425 3.79499,0 4,0 Z"
       id="path7"
       inkscape:connector-curvature="0"
       style="fill:#615f97;stroke:none" />
  </g>
  <defs
     id="defs14">
    <clipPath
       id="clip_1">
      <rect
         x="-40"
         y="-192"
         width="1920"
         height="1080"
         id="rect11"
         style="clip-rule:evenodd" />
    </clipPath>
  </defs>
  <g
     clip-path="url(#clip_1)"
     id="g18"
     transform="translate(5,5)">
    <path
       stroke-miterlimit="4"
       transform="translate(8.5,19.5)"
       d="M 0,1 H 17.4838 M 33.4762,1 H 43"
       id="path16"
       inkscape:connector-curvature="0"
       style="fill:none;stroke:#ffffff;stroke-width:2;stroke-miterlimit:4" />
  </g>
  <defs
     id="defs23">
    <clipPath
       id="clip_2">
      <rect
         x="-40"
         y="-192"
         width="1920"
         height="1080"
         id="rect20"
         style="clip-rule:evenodd" />
    </clipPath>
  </defs>
  <g
     clip-path="url(#clip_2)"
     id="g27"
     transform="translate(5,5)">
    <path
       stroke-miterlimit="4"
       transform="translate(8.5,30.5)"
       d="M 0,0 H 17.4838 M 36.5314,0 H 43"
       id="path25"
       inkscape:connector-curvature="0"
       style="fill:none;stroke:#ffffff;stroke-width:2;stroke-miterlimit:4" />
  </g>
  <defs
     id="defs32">
    <clipPath
       id="clip_3">
      <rect
         x="-40"
         y="-192"
         width="1920"
         height="1080"
         id="rect29"
         style="clip-rule:evenodd" />
    </clipPath>
  </defs>
  <g
     clip-path="url(#clip_3)"
     id="g36"
     transform="translate(5,5)">
    <path
       stroke-miterlimit="4"
       transform="translate(8.5,39.5)"
       d="M 0,1 H 6.50076 M 25.4775,1 H 43"
       id="path34"
       inkscape:connector-curvature="0"
       style="fill:none;stroke:#ffffff;stroke-width:2;stroke-miterlimit:4" />
  </g>
  <defs
     id="defs41">
    <clipPath
       id="clip_4">
      <rect
         x="-40"
         y="-192"
         width="1920"
         height="1080"
         id="rect38"
         style="clip-rule:evenodd" />
    </clipPath>
  </defs>
  <g
     clip-path="url(#clip_4)"
     id="g45"
     transform="translate(5,5)">
    <path
       transform="translate(17,12)"
       d="m 23.8941,23.5308 c 1.1665,-1.9242 1.9404,-4.3578 2.0905,-6.7659 0.0953,-1.5456 -0.2541,-3.168 -1.0106,-4.6937 C 23.7873,9.67451 21.7487,8.32816 19.7794,7.02735 18.3097,6.05673 16.9208,5.14018 15.939,3.83084 L 15.7629,3.59743 C 15.1825,2.8289 14.527,1.9579 14.4231,1.22638 14.3191,0.48631 13.6377,-0.0402753 12.8927,0.00242076 12.1362,0.0536561 11.55,0.671326 11.55,1.41993 V 26.7814 C 10.3401,26.0584 8.8502,25.6144 7.21876,25.6144 3.23978,25.6144 0,28.1676 0,31.3072 0,34.4468 3.23978,37 7.21876,37 11.1977,37 14.4375,34.4468 14.4375,31.3072 V 14.7183 c 2.1685,0.817 5.7173,2.8977 6.6932,7.7565 -0.1819,0.2647 -0.3551,0.5493 -0.5572,0.7771 -0.5285,0.5892 -0.4707,1.4886 0.1299,2.0067 0.5948,0.5237 1.5073,0.4611 2.0357,-0.1281 0.3869,-0.4327 0.7305,-0.9393 1.0597,-1.4688 0.0347,-0.0398 0.0665,-0.0825 0.0953,-0.1309 z"
       id="path43"
       inkscape:connector-curvature="0"
       style="fill:#ffffff;stroke:none" />
  </g>
</svg>
