<?xml version="1.0" encoding="UTF-8" standalone="no"?>
<svg
   xmlns:dc="http://purl.org/dc/elements/1.1/"
   xmlns:cc="http://creativecommons.org/ns#"
   xmlns:rdf="http://www.w3.org/1999/02/22-rdf-syntax-ns#"
   xmlns:svg="http://www.w3.org/2000/svg"
   xmlns="http://www.w3.org/2000/svg"
   xmlns:sodipodi="http://sodipodi.sourceforge.net/DTD/sodipodi-0.dtd"
   xmlns:inkscape="http://www.inkscape.org/namespaces/inkscape"
   width="70"
   height="70"
   version="1.1"
   id="svg65"
   sodipodi:docname="recordings_selected.svg"
   inkscape:version="0.92.2 2405546, 2018-03-11">
  <metadata
     id="metadata69">
    <rdf:RDF>
      <cc:Work
         rdf:about="">
        <dc:format>image/svg+xml</dc:format>
        <dc:type
           rdf:resource="http://purl.org/dc/dcmitype/StillImage" />
        <dc:title></dc:title>
      </cc:Work>
    </rdf:RDF>
  </metadata>
  <sodipodi:namedview
     pagecolor="#ffffff"
     bordercolor="#666666"
     borderopacity="1"
     objecttolerance="10"
     gridtolerance="10"
     guidetolerance="10"
     inkscape:pageopacity="0"
     inkscape:pageshadow="2"
     inkscape:window-width="1600"
     inkscape:window-height="836"
     id="namedview67"
     showgrid="false"
     fit-margin-top="5"
     fit-margin-bottom="5"
     fit-margin-left="5"
     fit-margin-right="5"
     inkscape:zoom="3.9333333"
     inkscape:cx="35"
     inkscape:cy="35"
     inkscape:window-x="0"
     inkscape:window-y="0"
     inkscape:window-maximized="1"
     inkscape:current-layer="svg65" />
  <defs
     id="defs5">
    <clipPath
       id="clip_0">
      <rect
         x="-40"
         y="-292"
         width="1920"
         height="1080"
         id="rect2"
         style="clip-rule:evenodd" />
    </clipPath>
  </defs>
  <g
     clip-path="url(#clip_0)"
     id="g9"
     transform="translate(5,5)">
    <path
       d="m 4,0 h 52 q 0.205,0 0.4069,0.0186425 0.2018,0.0186425 0.3989,0.0557754 0.197,0.0371331 0.3876,0.0924531 0.1906,0.055321 0.3733,0.128378 0.1826,0.073057 0.3558,0.163254 0.1732,0.090197 0.3355,0.1968 0.1623,0.106602 0.3124,0.22874 0.1501,0.122137 0.2867,0.258817 0.1367,0.13667 0.2589,0.28678 0.1221,0.1501 0.2287,0.3124 0.1066,0.1623 0.1968,0.33548 0.0902,0.17318 0.1633,0.35582 0.073,0.18264 0.1283,0.37326 0.0554,0.19061 0.0925,0.38765 0.0371,0.19704 0.0558,0.39889 Q 60,3.79499 60,4 v 52 q 0,0.205 -0.0186,0.4069 -0.0187,0.2018 -0.0558,0.3989 -0.0371,0.197 -0.0925,0.3876 -0.0553,0.1906 -0.1283,0.3733 -0.0731,0.1826 -0.1633,0.3558 -0.0902,0.1732 -0.1968,0.3355 -0.1066,0.1623 -0.2287,0.3124 -0.1222,0.1501 -0.2589,0.2867 -0.1366,0.1367 -0.2867,0.2589 -0.1501,0.1221 -0.3124,0.2287 -0.1623,0.1066 -0.3355,0.1968 -0.1732,0.0902 -0.3558,0.1633 -0.1827,0.073 -0.3733,0.1283 -0.1906,0.0554 -0.3876,0.0925 -0.1971,0.0371 -0.3989,0.0558 Q 56.205,60 56,60 H 4 Q 3.79499,60 3.59314,59.9814 3.39129,59.9627 3.19425,59.9256 2.99721,59.8885 2.8066,59.8331 2.61598,59.7778 2.43334,59.7048 2.2507,59.6317 2.07752,59.5415 1.90434,59.4513 1.74204,59.3447 1.57974,59.2381 1.42964,59.116 1.27953,58.9938 1.14286,58.8571 1.00618,58.7205 0.884043,58.5704 0.761905,58.4203 0.655303,58.258 0.5487,58.0957 0.458503,57.9225 0.368306,57.7493 0.295249,57.5667 0.222192,57.384 0.166871,57.1934 0.111551,57.0028 0.0744179,56.8058 0.037285,56.6087 0.0186425,56.4069 0,56.205 0,56 V 4 Q 0,3.79499 0.0186425,3.59314 0.037285,3.39129 0.0744179,3.19425 0.111551,2.99721 0.166871,2.8066 0.222192,2.61598 0.295249,2.43334 0.368306,2.2507 0.458503,2.07752 0.5487,1.90434 0.655303,1.74204 0.761905,1.57974 0.884043,1.42964 1.00618,1.27953 1.14286,1.14286 1.27953,1.00618 1.42964,0.884043 1.57974,0.761905 1.74204,0.655303 1.90434,0.5487 2.07752,0.458503 2.2507,0.368306 2.43334,0.295249 2.61598,0.222192 2.8066,0.166871 2.99721,0.111551 3.19425,0.0744179 3.39129,0.037285 3.59314,0.0186425 3.79499,0 4,0 Z"
       id="path7"
       inkscape:connector-curvature="0"
       style="fill:#615f97;stroke:none" />
  </g>
  <defs
     id="defs14">
    <clipPath
       id="clip_1">
      <rect
         x="-40"
         y="-292"
         width="1920"
         height="1080"
         id="rect11"
         style="clip-rule:evenodd" />
    </clipPath>
  </defs>
  <g
     clip-path="url(#clip_1)"
     id="g18"
     transform="translate(5,5)">
    <path
       transform="translate(22,34)"
       d="m 17,0 h -2.5 c 0,3.51724 -2.7,6.31034 -6,6.31034 -3.3,0 -6,-2.7931 -6,-6.31034 H 0 C 0,4.55172 3.2,8.27586 7.3,8.89655 V 14.4828 C 7.3,14.6897 7.5,15 7.8,15 h 1.3 c 0.3,0 0.5,-0.2069 0.5,-0.5172 V 8.89655 C 13.8,8.27586 17,4.55172 17,0 Z"
       id="path16"
       inkscape:connector-curvature="0"
       style="fill:#ffffff;stroke:none" />
  </g>
  <defs
     id="defs23">
    <clipPath
       id="clip_2">
      <rect
         x="-40"
         y="-292"
         width="1920"
         height="1080"
         id="rect20"
         style="clip-rule:evenodd" />
    </clipPath>
  </defs>
  <g
     clip-path="url(#clip_2)"
     id="g27"
     transform="translate(5,5)">
    <path
       transform="translate(26,19)"
       d="M 9,5.09804 C 9,2.2549 6.97059,0 4.5,0 2.02941,0 0,2.2549 0,5.09804 0,7.45098 0,12.549 0,14.902 0,17.7451 2.02941,20 4.5,20 6.97059,20 9,17.7451 9,14.902 9,12.549 9,7.45098 9,5.09804 Z"
       id="path25"
       inkscape:connector-curvature="0"
       style="fill:#ffffff;stroke:none" />
  </g>
  <defs
     id="defs32">
    <clipPath
       id="clip_3">
      <rect
         x="-40"
         y="-292"
         width="1920"
         height="1080"
         id="rect29"
         style="clip-rule:evenodd" />
    </clipPath>
  </defs>
  <g
     clip-path="url(#clip_3)"
     id="g36"
     transform="translate(5,5)">
    <path
       stroke-miterlimit="4"
       transform="translate(21,16.2139)"
       d="M 4.5,0 C 1.9,1.23333 0,3.90556 0,7.09167"
       id="path34"
       inkscape:connector-curvature="0"
       style="fill:none;stroke:#ffffff;stroke-width:2;stroke-miterlimit:4" />
  </g>
  <defs
     id="defs41">
    <clipPath
       id="clip_4">
      <rect
         x="-40"
         y="-292"
         width="1920"
         height="1080"
         id="rect38"
         style="clip-rule:evenodd" />
    </clipPath>
  </defs>
  <g
     clip-path="url(#clip_4)"
     id="g45"
     transform="translate(5,5)">
    <path
       stroke-miterlimit="4"
       transform="matrix(-1,0,0,1,40,16.2139)"
       d="M 4.5,0 C 1.9,1.23333 0,3.90556 0,7.09167"
       id="path43"
       inkscape:connector-curvature="0"
       style="fill:none;stroke:#ffffff;stroke-width:2;stroke-miterlimit:4" />
  </g>
  <defs
     id="defs50">
    <clipPath
       id="clip_5">
      <rect
         x="-40"
         y="-292"
         width="1920"
         height="1080"
         id="rect47"
         style="clip-rule:evenodd" />
    </clipPath>
  </defs>
  <g
     clip-path="url(#clip_5)"
     id="g54"
     transform="translate(5,5)">
    <path
       stroke-miterlimit="4"
       transform="translate(15.7998,11.7197)"
       d="M 7.7,0 C 3.2,1.33611 0,5.55 0,10.5861"
       id="path52"
       inkscape:connector-curvature="0"
       style="fill:none;stroke:#ffffff;stroke-width:2;stroke-miterlimit:4" />
  </g>
  <defs
     id="defs59">
    <clipPath
       id="clip_6">
      <rect
         x="-40"
         y="-292"
         width="1920"
         height="1080"
         id="rect56"
         style="clip-rule:evenodd" />
    </clipPath>
  </defs>
  <g
     clip-path="url(#clip_6)"
     id="g63"
     transform="translate(5,5)">
    <path
       stroke-miterlimit="4"
       transform="matrix(-1,0,0,1,45.2002,11.7197)"
       d="M 7.7,0 C 3.2,1.33611 0,5.55 0,10.5861"
       id="path61"
       inkscape:connector-curvature="0"
       style="fill:none;stroke:#ffffff;stroke-width:2;stroke-miterlimit:4" />
  </g>
</svg>
