<?xml version="1.0" encoding="UTF-8" standalone="no"?>
<svg
   xmlns:dc="http://purl.org/dc/elements/1.1/"
   xmlns:cc="http://creativecommons.org/ns#"
   xmlns:rdf="http://www.w3.org/1999/02/22-rdf-syntax-ns#"
   xmlns:svg="http://www.w3.org/2000/svg"
   xmlns="http://www.w3.org/2000/svg"
   xmlns:sodipodi="http://sodipodi.sourceforge.net/DTD/sodipodi-0.dtd"
   xmlns:inkscape="http://www.inkscape.org/namespaces/inkscape"
   width="178.75999"
   height="188.88399"
   version="1.1"
   id="svg182"
   sodipodi:docname="no_recordings.svg"
   inkscape:version="0.92.2 2405546, 2018-03-11"
   viewBox="0 0 178.75999 188.88398">
  <metadata
     id="metadata186">
    <rdf:RDF>
      <cc:Work
         rdf:about="">
        <dc:format>image/svg+xml</dc:format>
        <dc:type
           rdf:resource="http://purl.org/dc/dcmitype/StillImage" />
        <dc:title></dc:title>
      </cc:Work>
    </rdf:RDF>
  </metadata>
  <sodipodi:namedview
     pagecolor="#ffffff"
     bordercolor="#666666"
     borderopacity="1"
     objecttolerance="10"
     gridtolerance="10"
     guidetolerance="10"
     inkscape:pageopacity="0"
     inkscape:pageshadow="2"
     inkscape:window-width="1600"
     inkscape:window-height="836"
     id="namedview184"
     showgrid="false"
     inkscape:zoom="2"
     inkscape:cx="36.074801"
     inkscape:cy="41.127731"
     inkscape:window-x="0"
     inkscape:window-y="0"
     inkscape:window-maximized="1"
     inkscape:current-layer="svg182"
     fit-margin-top="0"
     fit-margin-left="0"
     fit-margin-right="0"
     fit-margin-bottom="0"
     scale-x="1" />
  <defs
     id="defs5">
    <clipPath
       id="clip_0">
      <rect
         x="-1004"
         y="-175"
         width="1920"
         height="1080"
         id="rect2"
         style="clip-rule:evenodd" />
    </clipPath>
  </defs>
  <g
     clip-path="url(#clip_0)"
     id="g9"
     transform="matrix(0.82,0,0,0.82,0,-2.1760142)">
    <path
       transform="translate(0,157)"
       d="M 109,76 C 169.199,76 218,58.9868 218,38 218,17.0132 169.199,0 109,0 48.801,0 0,17.0132 0,38 0,58.9868 48.801,76 109,76 Z"
       id="path7"
       inkscape:connector-curvature="0"
       style="fill:#e8e9f8;stroke:none" />
  </g>
  <defs
     id="defs14">
    <clipPath
       id="clip_1">
      <rect
         x="-1004"
         y="-175"
         width="1920"
         height="1080"
         id="rect11"
         style="clip-rule:evenodd" />
    </clipPath>
  </defs>
  <g
     clip-path="url(#clip_1)"
     id="g18"
     transform="matrix(0.82,0,0,0.82,0,-2.1760142)">
    <path
       transform="translate(28,96)"
       d="M 0,0 81,22.434 V 113 L 0,91.735 Z"
       id="path16"
       inkscape:connector-curvature="0"
       style="fill:#ffffff;stroke:none" />
  </g>
  <defs
     id="defs23">
    <clipPath
       id="clip_2">
      <path
         d="M 109,118.434 28,96 v 91.735 L 109,209 Z"
         id="path20"
         inkscape:connector-curvature="0"
         style="clip-rule:evenodd" />
    </clipPath>
  </defs>
  <g
     clip-path="url(#clip_2)"
     id="g27"
     transform="matrix(0.82,0,0,0.82,0,-2.1760142)">
    <path
       stroke-miterlimit="4"
       transform="translate(28,96)"
       d="M 0,0 81,22.434 V 113 L 0,91.735 Z"
       id="path25"
       inkscape:connector-curvature="0"
       style="fill:none;stroke:#979797;stroke-width:2;stroke-miterlimit:4" />
  </g>
  <defs
     id="defs32">
    <clipPath
       id="clip_3">
      <rect
         x="-1004"
         y="-175"
         width="1920"
         height="1080"
         id="rect29"
         style="clip-rule:evenodd" />
    </clipPath>
  </defs>
  <g
     clip-path="url(#clip_3)"
     id="g36"
     transform="matrix(0.82,0,0,0.82,0,-2.1760142)">
    <path
       transform="translate(109,96.0166)"
       d="M 0,21.9837 80.5782,0 V 92 L 0,112.984 Z"
       id="path34"
       inkscape:connector-curvature="0"
       style="fill:#ffffff;stroke:none" />
  </g>
  <defs
     id="defs41">
    <clipPath
       id="clip_4">
      <path
         d="M 189.578,96.0166 109,118 v 91 l 80.578,-20.983 z"
         id="path38"
         inkscape:connector-curvature="0"
         style="clip-rule:evenodd" />
    </clipPath>
  </defs>
  <g
     clip-path="url(#clip_4)"
     id="g45"
     transform="matrix(0.82,0,0,0.82,0,-2.1760142)">
    <path
       stroke-miterlimit="4"
       transform="translate(109,96.0166)"
       d="M 0,21.9837 80.5782,0 V 92 L 0,112.984 Z"
       id="path43"
       inkscape:connector-curvature="0"
       style="fill:none;stroke:#979797;stroke-width:2;stroke-miterlimit:4" />
  </g>
  <defs
     id="defs50">
    <clipPath
       id="clip_5">
      <rect
         x="-1004"
         y="-175"
         width="1920"
         height="1080"
         id="rect47"
         style="clip-rule:evenodd" />
    </clipPath>
  </defs>
  <g
     clip-path="url(#clip_5)"
     id="g54"
     transform="matrix(0.82,0,0,0.82,0,-2.1760142)">
    <path
       transform="rotate(-81.000023,75.399633,36.718748)"
       d="M 9.74609,0 43.7258,75.683 0,82.6085 Z"
       id="path52"
       inkscape:connector-curvature="0"
       style="fill:#c6c7ed;stroke:none" />
  </g>
  <defs
     id="defs59">
    <clipPath
       id="clip_6">
      <rect
         x="-1004"
         y="-175"
         width="1920"
         height="1080"
         id="rect56"
         style="clip-rule:evenodd" />
    </clipPath>
  </defs>
  <g
     clip-path="url(#clip_6)"
     id="g63"
     transform="matrix(0.82,0,0,0.82,0,-2.1760142)">
    <path
       transform="matrix(-0.156434,0.987688,0.987688,0.156434,107.178,62.2588)"
       d="M 9.74609,0 43.7258,75.683 0,82.6085 Z"
       id="path61"
       inkscape:connector-curvature="0"
       style="fill:#c6c7ed;stroke:none" />
  </g>
  <defs
     id="defs68">
    <clipPath
       id="clip_7">
      <rect
         x="-1004"
         y="-175"
         width="1920"
         height="1080"
         id="rect65"
         style="clip-rule:evenodd" />
    </clipPath>
  </defs>
  <g
     clip-path="url(#clip_7)"
     id="g72"
     transform="matrix(0.82,0,0,0.82,0,-2.1760142)">
    <path
       stroke-miterlimit="4"
       transform="translate(27.7861,96.1016)"
       d="M 0,0 V 91.6613 L 81.0834,112.925 161.879,91.6613 V 0 L 81.0834,22.45 Z"
       id="path70"
       inkscape:connector-curvature="0"
       style="fill:none;stroke:#7f7cbc;stroke-width:2;stroke-miterlimit:4" />
  </g>
  <defs
     id="defs77">
    <clipPath
       id="clip_8">
      <rect
         x="-1004"
         y="-175"
         width="1920"
         height="1080"
         id="rect74"
         style="clip-rule:evenodd" />
    </clipPath>
  </defs>
  <g
     clip-path="url(#clip_8)"
     id="g81"
     transform="matrix(0.82,0,0,0.82,0,-2.1760142)">
    <path
       stroke-miterlimit="4"
       transform="translate(27.0361,73.8516)"
       d="M 0,21.8812 81.9111,0 163.372,21.8812"
       id="path79"
       inkscape:connector-curvature="0"
       style="fill:none;stroke:#7f7cbc;stroke-width:2;stroke-miterlimit:4" />
  </g>
  <defs
     id="defs86">
    <clipPath
       id="clip_9">
      <rect
         x="-1004"
         y="-175"
         width="1920"
         height="1080"
         id="rect83"
         style="clip-rule:evenodd" />
    </clipPath>
  </defs>
  <g
     clip-path="url(#clip_9)"
     id="g90"
     transform="matrix(0.82,0,0,0.82,0,-2.1760142)">
    <path
       stroke-miterlimit="4"
       transform="translate(107.86,74.0488)"
       d="M 1,0 V 135.074"
       id="path88"
       inkscape:connector-curvature="0"
       style="fill:none;stroke:#7f7cbc;stroke-width:2;stroke-miterlimit:4" />
  </g>
  <defs
     id="defs95">
    <clipPath
       id="clip_10">
      <rect
         x="-1004"
         y="-175"
         width="1920"
         height="1080"
         id="rect92"
         style="clip-rule:evenodd" />
    </clipPath>
  </defs>
  <g
     clip-path="url(#clip_10)"
     id="g99"
     transform="matrix(0.82,0,0,0.82,0,-2.1760142)">
    <path
       transform="rotate(0.99999933,-8813.9378,4938.3706)"
       d="M 2,4 C 3.10457,4 4,3.10457 4,2 4,0.895431 3.10457,0 2,0 0.895431,0 0,0.895431 0,2 0,3.10457 0.895431,4 2,4 Z"
       id="path97"
       inkscape:connector-curvature="0"
       style="fill:#7f7cbc;stroke:none" />
  </g>
  <defs
     id="defs104">
    <clipPath
       id="clip_11">
      <rect
         x="-1004"
         y="-175"
         width="1920"
         height="1080"
         id="rect101"
         style="clip-rule:evenodd" />
    </clipPath>
  </defs>
  <g
     clip-path="url(#clip_11)"
     id="g108"
     transform="matrix(0.82,0,0,0.82,0,-2.1760142)">
    <path
       transform="rotate(0.99999933,-8317.7495,2699.3994)"
       d="M 2,4 C 3.10457,4 4,3.10457 4,2 4,0.895431 3.10457,0 2,0 0.895431,0 0,0.895431 0,2 0,3.10457 0.895431,4 2,4 Z"
       id="path106"
       inkscape:connector-curvature="0"
       style="fill:#7f7cbc;stroke:none" />
  </g>
  <defs
     id="defs113">
    <clipPath
       id="clip_12">
      <rect
         x="-1004"
         y="-175"
         width="1920"
         height="1080"
         id="rect110"
         style="clip-rule:evenodd" />
    </clipPath>
  </defs>
  <g
     clip-path="url(#clip_12)"
     id="g117"
     transform="matrix(0.82,0,0,0.82,0,-2.1760142)">
    <path
       transform="rotate(0.99999933,-9017.0709,1957.0543)"
       d="M 2,4 C 3.10457,4 4,3.10457 4,2 4,0.895431 3.10457,0 2,0 0.895431,0 0,0.895431 0,2 0,3.10457 0.895431,4 2,4 Z"
       id="path115"
       inkscape:connector-curvature="0"
       style="fill:#ffffff;stroke:none" />
  </g>
  <defs
     id="defs122">
    <clipPath
       id="clip_13">
      <rect
         x="-1004"
         y="-175"
         width="1920"
         height="1080"
         id="rect119"
         style="clip-rule:evenodd" />
    </clipPath>
  </defs>
  <g
     clip-path="url(#clip_13)"
     id="g126"
     transform="matrix(0.82,0,0,0.82,0,-2.1760142)">
    <path
       transform="rotate(12.999998,-662.13356,448.86434)"
       d="M 2,0 H 6 Q 6.10251,0 6.20343,0.00932124 6.30436,0.0186425 6.40287,0.037209 6.50139,0.0557754 6.5967,0.0834357 6.69201,0.111096 6.78333,0.147624 6.87465,0.184153 6.96124,0.229252 7.04783,0.27435 7.12898,0.327651 7.21013,0.380953 7.28518,0.442021 7.36023,0.50309 7.42857,0.571429 7.49691,0.639767 7.55798,0.714818 7.61905,0.789868 7.67235,0.871019 7.72565,0.95217 7.77075,1.03876 7.81585,1.12535 7.85238,1.21667 7.88891,1.30799 7.91656,1.4033 7.94423,1.49861 7.96279,1.59713 7.98136,1.69564 7.99068,1.79657 8,1.89749 8,2 V 2 Q 8,2.10251 7.99068,2.20343 7.98136,2.30436 7.96279,2.40288 7.94422,2.50139 7.91656,2.5967 7.8889,2.69201 7.85238,2.78333 7.81585,2.87465 7.77075,2.96124 7.72565,3.04783 7.67235,3.12898 7.61905,3.21013 7.55798,3.28518 7.49691,3.36023 7.42857,3.42857 7.36023,3.49691 7.28518,3.55798 7.21013,3.61905 7.12898,3.67235 7.04783,3.72565 6.96124,3.77075 6.87465,3.81585 6.78333,3.85238 6.69201,3.8889 6.5967,3.91656 6.50139,3.94422 6.40288,3.96279 6.30436,3.98136 6.20343,3.99068 6.10251,4 6,4 H 2 Q 1.89749,4 1.79657,3.99068 1.69564,3.98136 1.59713,3.96279 1.49861,3.94422 1.4033,3.91656 1.30799,3.8889 1.21667,3.85238 1.12535,3.81585 1.03876,3.77075 0.95217,3.72565 0.871019,3.67235 0.789868,3.61905 0.714818,3.55798 0.639767,3.49691 0.571429,3.42857 0.50309,3.36023 0.442021,3.28518 0.380953,3.21013 0.327651,3.12898 0.27435,3.04783 0.229252,2.96124 0.184153,2.87465 0.147624,2.78333 0.111096,2.69201 0.0834357,2.5967 0.0557754,2.50139 0.037209,2.40288 0.0186425,2.30436 0.00932124,2.20343 0,2.10251 0,2 V 2 Q 0,1.89749 0.00932124,1.79657 0.0186425,1.69564 0.037209,1.59713 0.0557754,1.49861 0.0834357,1.4033 0.111096,1.30799 0.147624,1.21667 0.184153,1.12535 0.229252,1.03876 0.27435,0.95217 0.327651,0.871019 0.380953,0.789868 0.442021,0.714818 0.50309,0.639767 0.571429,0.571429 0.639767,0.50309 0.714818,0.442021 0.789868,0.380953 0.871019,0.327651 0.95217,0.27435 1.03876,0.229252 1.12535,0.184153 1.21667,0.147624 1.30799,0.111096 1.4033,0.0834357 1.49861,0.0557754 1.59713,0.037209 1.69564,0.0186425 1.79657,0.00932124 1.89749,0 2,0 Z"
       id="path124"
       inkscape:connector-curvature="0"
       style="fill:#e8e9f8;stroke:none" />
  </g>
  <defs
     id="defs131">
    <clipPath
       id="clip_14">
      <rect
         x="-1004"
         y="-175"
         width="1920"
         height="1080"
         id="rect128"
         style="clip-rule:evenodd" />
    </clipPath>
  </defs>
  <g
     clip-path="url(#clip_14)"
     id="g135"
     transform="matrix(0.82,0,0,0.82,0,-2.1760142)">
    <path
       transform="rotate(14.999995,-549.92833,235.0502)"
       d="M 2,0 H 6 Q 6.10251,0 6.20343,0.00932124 6.30436,0.0186425 6.40287,0.037209 6.50139,0.0557754 6.5967,0.0834357 6.69201,0.111096 6.78333,0.147624 6.87465,0.184153 6.96124,0.229252 7.04783,0.27435 7.12898,0.327651 7.21013,0.380953 7.28518,0.442021 7.36023,0.50309 7.42857,0.571429 7.49691,0.639767 7.55798,0.714818 7.61905,0.789868 7.67235,0.871019 7.72565,0.95217 7.77075,1.03876 7.81585,1.12535 7.85238,1.21667 7.88891,1.30799 7.91656,1.4033 7.94423,1.49861 7.96279,1.59713 7.98136,1.69564 7.99068,1.79657 8,1.89749 8,2 V 2 Q 8,2.10251 7.99068,2.20343 7.98136,2.30436 7.96279,2.40288 7.94422,2.50139 7.91656,2.5967 7.8889,2.69201 7.85238,2.78333 7.81585,2.87465 7.77075,2.96124 7.72565,3.04783 7.67235,3.12898 7.61905,3.21013 7.55798,3.28518 7.49691,3.36023 7.42857,3.42857 7.36023,3.49691 7.28518,3.55798 7.21013,3.61905 7.12898,3.67235 7.04783,3.72565 6.96124,3.77075 6.87465,3.81585 6.78333,3.85238 6.69201,3.8889 6.5967,3.91656 6.50139,3.94422 6.40288,3.96279 6.30436,3.98136 6.20343,3.99068 6.10251,4 6,4 H 2 Q 1.89749,4 1.79657,3.99068 1.69564,3.98136 1.59713,3.96279 1.49861,3.94422 1.4033,3.91656 1.30799,3.8889 1.21667,3.85238 1.12535,3.81585 1.03876,3.77075 0.95217,3.72565 0.871019,3.67235 0.789868,3.61905 0.714818,3.55798 0.639767,3.49691 0.571429,3.42857 0.50309,3.36023 0.442021,3.28518 0.380953,3.21013 0.327651,3.12898 0.27435,3.04783 0.229252,2.96124 0.184153,2.87465 0.147624,2.78333 0.111096,2.69201 0.0834357,2.5967 0.0557754,2.50139 0.037209,2.40288 0.0186425,2.30436 0.00932124,2.20343 0,2.10251 0,2 V 2 Q 0,1.89749 0.00932124,1.79657 0.0186425,1.69564 0.037209,1.59713 0.0557754,1.49861 0.0834357,1.4033 0.111096,1.30799 0.147624,1.21667 0.184153,1.12535 0.229252,1.03876 0.27435,0.95217 0.327651,0.871019 0.380953,0.789868 0.442021,0.714818 0.50309,0.639767 0.571429,0.571429 0.639767,0.50309 0.714818,0.442021 0.789868,0.380953 0.871019,0.327651 0.95217,0.27435 1.03876,0.229252 1.12535,0.184153 1.21667,0.147624 1.30799,0.111096 1.4033,0.0834357 1.49861,0.0557754 1.59713,0.037209 1.69564,0.0186425 1.79657,0.00932124 1.89749,0 2,0 Z"
       id="path133"
       inkscape:connector-curvature="0"
       style="fill:#e8e9f8;stroke:none" />
  </g>
  <defs
     id="defs140">
    <clipPath
       id="clip_15">
      <rect
         x="-1004"
         y="-175"
         width="1920"
         height="1080"
         id="rect137"
         style="clip-rule:evenodd" />
    </clipPath>
  </defs>
  <g
     clip-path="url(#clip_15)"
     id="g144"
     transform="matrix(0.82,0,0,0.82,0,-2.1760142)">
    <path
       stroke-miterlimit="4"
       transform="rotate(0.99999933,-7435.7281,2642.7558)"
       d="M 0,4.17975 C 0,4.17975 1.67304,0 6.37324,0"
       id="path142"
       inkscape:connector-curvature="0"
       style="fill:none;stroke:#7f7cbc;stroke-width:2;stroke-miterlimit:4" />
  </g>
  <defs
     id="defs149">
    <clipPath
       id="clip_16">
      <rect
         x="-1004"
         y="-175"
         width="1920"
         height="1080"
         id="rect146"
         style="clip-rule:evenodd" />
    </clipPath>
  </defs>
  <g
     clip-path="url(#clip_16)"
     id="g153"
     transform="matrix(0.82,0,0,0.82,0,-2.1760142)">
    <path
       stroke-miterlimit="4"
       transform="rotate(67.999982,-58.167147,132.93297)"
       d="M 0,4.17975 C 0,4.17975 1.67304,0 6.37324,0"
       id="path151"
       inkscape:connector-curvature="0"
       style="fill:none;stroke:#7f7cbc;stroke-width:2;stroke-miterlimit:4" />
  </g>
  <defs
     id="defs158">
    <clipPath
       id="clip_17">
      <rect
         x="-1004"
         y="-175"
         width="1920"
         height="1080"
         id="rect155"
         style="clip-rule:evenodd" />
    </clipPath>
  </defs>
  <g
     clip-path="url(#clip_17)"
     id="g162"
     transform="matrix(0.82,0,0,0.82,0,-2.1760142)">
    <path
       stroke-miterlimit="4"
       transform="rotate(0.99999933,-9062.9584,3004.1066)"
       d="m 0,3.98365 c 0,0 15.5448,-10.4381 28.5697,6.47405"
       id="path160"
       inkscape:connector-curvature="0"
       style="fill:none;stroke:#7f7cbc;stroke-width:2;stroke-miterlimit:4" />
  </g>
  <defs
     id="defs167">
    <clipPath
       id="clip_18">
      <rect
         x="-1004"
         y="-175"
         width="1920"
         height="1080"
         id="rect164"
         style="clip-rule:evenodd" />
    </clipPath>
  </defs>
  <g
     clip-path="url(#clip_18)"
     id="g171"
     transform="matrix(0.82,0,0,0.82,0,-2.1760142)">
    <path
       stroke-miterlimit="4"
       transform="translate(115.803,25.042)"
       d="m 18.9097,85.0504 c 0,0 -20.34918,-59.2441 16.8796,-71.1143 0,0 12.2254,-2.8263 14.2425,6.1319 2.017,8.9583 -9.3079,12.1459 -9.3079,12.1459 0,0 -13.5371,1.8817 -26.6171,-14.2405 C 1.02685,1.85128 0,0 0,0"
       id="path169"
       inkscape:connector-curvature="0"
       style="fill:none;stroke:#8481bc;stroke-width:2;stroke-miterlimit:4" />
  </g>
  <defs
     id="defs176">
    <clipPath
       id="clip_19">
      <rect
         x="-1004"
         y="-175"
         width="1920"
         height="1080"
         id="rect173"
         style="clip-rule:evenodd" />
    </clipPath>
  </defs>
  <g
     clip-path="url(#clip_19)"
     id="g180"
     transform="matrix(0.82,0,0,0.82,0,-2.1760142)">
    <path
       transform="rotate(22.99999,53.084447,263.13001)"
       d="M 11.947,11.4474 C 12.5303,10.5113 12.9172,9.32739 12.9923,8.1559 13.04,7.40399 12.8653,6.61469 12.487,5.87247 11.8936,4.70652 10.8743,4.05154 9.8897,3.41871 9.15483,2.94652 8.46038,2.50063 7.96951,1.86365 L 7.88144,1.7501 C 7.59125,1.37622 7.26351,0.952493 7.21154,0.596615 7.15956,0.236583 6.81884,-0.0195934 6.44635,0.00117766 6.06809,0.0261029 5.77501,0.326591 5.77501,0.690777 V 13.0288 C 5.17007,12.6771 4.4251,12.461 3.60938,12.461 1.61989,12.461 0,13.7032 0,15.2305 0,16.7579 1.61989,18 3.60938,18 5.59887,18 7.21876,16.7579 7.21876,15.2305 V 7.16027 c 1.08425,0.39742 2.85864,1.40966 3.34664,3.77343 -0.091,0.1288 -0.1776,0.2672 -0.2787,0.378 -0.2642,0.2867 -0.2353,0.7242 0.065,0.9763 0.2974,0.2547 0.7536,0.2243 1.0178,-0.0624 0.1935,-0.2104 0.3653,-0.4569 0.5299,-0.7145 0.0173,-0.0194 0.0333,-0.0401 0.0476,-0.0637 z"
       id="path178"
       inkscape:connector-curvature="0"
       style="fill:#c6c7ed;stroke:none" />
  </g>
</svg>
